<svg width="465" height="366" viewBox="0 0 465 366" fill="none" xmlns="http://www.w3.org/2000/svg">
<rect x="2.5" y="2.5" width="460" height="359" rx="17.5" stroke="url(#paint0_linear_1416_29905)" stroke-width="5"/>
<path d="M337.184 152.267C335.389 139.598 323.122 113.095 288.846 98.4097M288.846 98.4097C284.661 96.6167 280.149 94.9998 275.287 93.6058C269.046 91.8165 263.603 90.4836 258.805 89.5121M275.287 93.6058C262.88 94.7034 239.106 98.8779 243.266 106.795C248.468 116.692 272.49 99.7235 275.287 93.6058ZM211.967 90.545C206.551 90.7442 200.01 90.0171 190.48 87.198C181.344 84.4955 173.169 80.9795 165.911 77.3677M190.48 87.198C183.77 96.9889 168.372 113.942 160.462 103.428C152.551 92.9136 177.178 88.227 190.48 87.198ZM165.911 77.3677C143.8 66.3643 130.201 54.4711 123.877 61.9786C117.156 69.956 149.099 75.5619 165.911 77.3677ZM211.967 90.545C200.554 85.3477 177.883 73.4377 178.497 67.3761C179.264 59.7991 207.963 77.7836 211.967 90.545ZM258.805 89.5121C246.455 87.0113 238.382 86.9056 231.997 87.5765C224.384 88.3764 219.17 90.28 211.967 90.545M231.997 87.5765C221.145 91.4042 200.612 100.788 205.297 107.703C211.153 116.346 227.677 95.5227 231.997 87.5765ZM258.805 89.5121C247.375 86.486 224.38 78.3311 223.837 69.9205C223.159 59.4073 256.898 75.0819 258.805 89.5121ZM288.846 98.4097C279.967 92.9357 263.341 80.5845 267.869 74.9719C273.528 67.9561 284.848 85.6648 288.846 98.4097Z" stroke="url(#paint1_linear_1416_29905)" stroke-width="2" stroke-linecap="round" stroke-linejoin="round"/>
<path d="M278.604 298.856C307.361 303.944 335.652 296.013 339.096 285.981C342.54 275.949 319.293 250.025 309.75 241.89C300.207 233.754 244.27 218.494 199.05 218.089C166.628 217.799 107.844 214.813 117.187 220.263C126.53 225.714 123.098 224.386 130.732 230.895C140.275 239.03 145.086 251.149 167.984 266.112C190.883 281.076 242.659 292.497 278.604 298.856Z" fill="url(#paint2_linear_1416_29905)"/>
<path d="M278.605 298.855C307.362 303.942 335.653 296.011 339.097 285.979C339.097 285.979 309.483 274.855 279.698 279.956C249.912 285.058 222.079 296.432 180.815 259.839C139.551 223.245 110.563 214.04 119.907 219.491C129.25 224.941 123.036 222.97 130.733 230.893C139.471 239.887 145.087 251.147 167.985 266.11C190.884 281.074 242.66 292.495 278.605 298.855Z" fill="url(#paint3_linear_1416_29905)"/>
<path d="M167.082 238.167C162.407 236.384 158.057 234.561 154.223 232.766C150.952 231.234 147.847 229.838 144.939 228.575C132.962 223.374 124.313 220.428 121.023 219.499M367.717 314.285C359.633 297.748 341.045 285.144 319.979 275.834M132.709 231.062C135.816 230.588 142.12 230.094 144.939 228.575M143.831 244.524C149.985 243.557 163.251 240.93 167.082 238.167M167.082 238.167C181.69 243.739 199.462 248.929 214.509 251.714M190.954 219.285C198.171 226.702 211.975 242.268 214.509 251.714M214.509 251.714C216.232 252.033 217.918 252.32 219.561 252.573M182.428 272.429C194.088 268.577 216.81 259.697 219.561 252.573M219.561 252.573C224.051 253.264 228.209 253.697 231.853 253.81C233.756 253.869 236.305 254.065 239.38 254.407M215.832 221.037C223.98 229.737 239.212 246.779 239.38 254.407M239.38 254.407C246.546 255.204 256.57 256.796 267.932 259.304M233.276 287.643C243.93 280.974 263.67 266.981 267.932 259.304M319.979 275.834C308.633 270.82 296.569 266.761 285.038 263.559C279.14 261.921 273.382 260.507 267.932 259.304M247.78 291.127C258.905 284.663 281.254 271.302 285.038 263.559M288.319 234.021C298.966 245.935 319.864 268.312 319.979 275.834" stroke="url(#paint4_linear_1416_29905)" stroke-width="2" stroke-linecap="round"/>
<path d="M386.471 178.979C385.971 208.979 402.471 227.265 410.971 228.479C419.471 229.693 423.071 217.379 425.471 198.979C428.471 175.979 421.471 154.979 409.471 132.479C397.471 109.979 335.971 73.9792 326.971 42.9792C317.971 11.9792 321.471 28.9792 319.471 49.9792C317.471 70.9792 321.971 93.9792 330.471 103.479C338.971 112.979 386.971 148.979 386.471 178.979Z" fill="url(#paint5_linear_1416_29905)"/>
<path d="M386.471 178.979C385.971 208.979 404.471 228.979 410.971 228.479C423.471 229.979 412.471 210.979 410.971 192.479C409.096 169.36 339.471 116.979 327.471 94.4792C315.471 71.9792 335.971 73.9792 326.971 42.9792C317.971 11.9792 321.471 28.9792 319.471 49.9792C317.471 70.9792 321.971 93.9792 330.471 103.479C338.971 112.979 386.971 148.979 386.471 178.979Z" fill="url(#paint6_linear_1416_29905)"/>
<path d="M404.573 160.479C407.112 166.387 408.684 172.549 410.028 180.479C411.189 187.332 414.382 203.96 414.892 214.5C417.312 264.521 413.473 266.5 388.392 309.5M338.812 76.9792C336.835 74.0771 335.003 71.1043 333.309 67.9792C327.759 57.7382 324.123 46.3827 321.392 30M320.973 59.4792C323.364 62.3126 329.178 67.9792 333.309 67.9792M320.973 67.9792C324.532 71.1459 332.284 76.9792 338.812 76.9792M338.812 76.9792C342.153 81.8832 345.904 86.5854 350.089 91.4792M345.973 73.9792C346.884 77.6459 348.983 86.2792 350.089 91.4792M404.573 160.479C401.791 154.005 397.848 147.837 391.775 139.979C388.111 135.239 383.672 129.885 378.245 123.479C377.827 122.986 377.403 122.486 376.973 121.979C373.79 118.232 370.75 114.753 367.848 111.479C361.221 104.002 355.317 97.5912 350.089 91.4792M331.973 101.979C340.889 105.479 360.548 112.279 367.848 111.479M376.892 101.5C378.407 107.167 380.063 117.879 378.245 123.479M390.892 114.5C391.76 120.667 392.816 131.979 391.775 139.979M374.473 145.979C381.539 150.479 397.453 159.679 404.573 160.479M385.392 164C391.762 169.5 404.472 180.479 410.028 180.479" stroke="url(#paint7_linear_1416_29905)" stroke-width="2" stroke-linecap="round" stroke-linejoin="round"/>
<g filter="url(#filter0_f_1416_29905)">
<path d="M116.875 188.441C116.875 187.999 116.81 187.602 116.68 187.25C116.549 186.885 116.309 186.547 115.957 186.234C115.605 185.922 115.098 185.609 114.434 185.297C113.783 184.971 112.923 184.633 111.855 184.281C110.605 183.865 109.401 183.396 108.242 182.875C107.083 182.341 106.048 181.723 105.137 181.02C104.225 180.303 103.503 179.47 102.969 178.52C102.435 177.556 102.168 176.436 102.168 175.16C102.168 173.936 102.441 172.836 102.988 171.859C103.535 170.87 104.297 170.03 105.273 169.34C106.263 168.637 107.422 168.103 108.75 167.738C110.078 167.361 111.53 167.172 113.105 167.172C115.189 167.172 117.025 167.536 118.613 168.266C120.215 168.982 121.465 170.004 122.363 171.332C123.275 172.647 123.73 174.203 123.73 176H116.914C116.914 175.284 116.764 174.652 116.465 174.105C116.178 173.559 115.742 173.129 115.156 172.816C114.57 172.504 113.835 172.348 112.949 172.348C112.09 172.348 111.367 172.478 110.781 172.738C110.195 172.999 109.753 173.35 109.453 173.793C109.154 174.223 109.004 174.698 109.004 175.219C109.004 175.648 109.121 176.039 109.355 176.391C109.603 176.729 109.948 177.048 110.391 177.348C110.846 177.647 111.393 177.934 112.031 178.207C112.682 178.48 113.411 178.747 114.219 179.008C115.729 179.49 117.07 180.03 118.242 180.629C119.427 181.215 120.423 181.885 121.23 182.641C122.051 183.383 122.669 184.229 123.086 185.18C123.516 186.13 123.73 187.204 123.73 188.402C123.73 189.678 123.483 190.811 122.988 191.801C122.493 192.79 121.784 193.63 120.859 194.32C119.935 194.997 118.828 195.512 117.539 195.863C116.25 196.215 114.811 196.391 113.223 196.391C111.764 196.391 110.326 196.208 108.906 195.844C107.5 195.466 106.224 194.893 105.078 194.125C103.932 193.344 103.014 192.348 102.324 191.137C101.647 189.913 101.309 188.461 101.309 186.781H108.184C108.184 187.615 108.294 188.318 108.516 188.891C108.737 189.464 109.062 189.926 109.492 190.277C109.922 190.616 110.449 190.863 111.074 191.02C111.699 191.163 112.415 191.234 113.223 191.234C114.095 191.234 114.798 191.111 115.332 190.863C115.866 190.603 116.257 190.264 116.504 189.848C116.751 189.418 116.875 188.949 116.875 188.441ZM146.836 190.727V196H131.68V190.727H146.836ZM134.121 167.562V196H127.266V167.562H134.121ZM144.883 178.852V183.949H131.68V178.852H144.883ZM146.895 167.562V172.855H131.68V167.562H146.895ZM173.398 167.562V196H166.562L156.504 178.305V196H149.648V167.562H156.504L166.562 185.258V167.562H173.398ZM186.973 196H180.664L180.703 190.727H186.973C188.275 190.727 189.375 190.414 190.273 189.789C191.185 189.164 191.875 188.233 192.344 186.996C192.826 185.746 193.066 184.21 193.066 182.387V181.156C193.066 179.789 192.93 178.591 192.656 177.562C192.396 176.521 192.005 175.655 191.484 174.965C190.964 174.262 190.312 173.734 189.531 173.383C188.763 173.031 187.878 172.855 186.875 172.855H180.547V167.562H186.875C188.802 167.562 190.566 167.895 192.168 168.559C193.783 169.21 195.176 170.147 196.348 171.371C197.533 172.582 198.444 174.021 199.082 175.688C199.733 177.341 200.059 179.177 200.059 181.195V182.387C200.059 184.392 199.733 186.228 199.082 187.895C198.444 189.561 197.539 191 196.367 192.211C195.195 193.422 193.809 194.359 192.207 195.023C190.618 195.674 188.874 196 186.973 196ZM184.59 167.562V196H177.734V167.562H184.59ZM225.645 173.539L218.711 196H211.348L221.797 167.562H226.465L225.645 173.539ZM231.387 196L224.434 173.539L223.535 167.562H228.262L238.77 196H231.387ZM231.113 185.395V190.688H216.523V185.395H231.113ZM265.469 188.441C265.469 187.999 265.404 187.602 265.273 187.25C265.143 186.885 264.902 186.547 264.551 186.234C264.199 185.922 263.691 185.609 263.027 185.297C262.376 184.971 261.517 184.633 260.449 184.281C259.199 183.865 257.995 183.396 256.836 182.875C255.677 182.341 254.642 181.723 253.73 181.02C252.819 180.303 252.096 179.47 251.562 178.52C251.029 177.556 250.762 176.436 250.762 175.16C250.762 173.936 251.035 172.836 251.582 171.859C252.129 170.87 252.891 170.03 253.867 169.34C254.857 168.637 256.016 168.103 257.344 167.738C258.672 167.361 260.124 167.172 261.699 167.172C263.783 167.172 265.618 167.536 267.207 168.266C268.809 168.982 270.059 170.004 270.957 171.332C271.868 172.647 272.324 174.203 272.324 176H265.508C265.508 175.284 265.358 174.652 265.059 174.105C264.772 173.559 264.336 173.129 263.75 172.816C263.164 172.504 262.428 172.348 261.543 172.348C260.684 172.348 259.961 172.478 259.375 172.738C258.789 172.999 258.346 173.35 258.047 173.793C257.747 174.223 257.598 174.698 257.598 175.219C257.598 175.648 257.715 176.039 257.949 176.391C258.197 176.729 258.542 177.048 258.984 177.348C259.44 177.647 259.987 177.934 260.625 178.207C261.276 178.48 262.005 178.747 262.812 179.008C264.323 179.49 265.664 180.03 266.836 180.629C268.021 181.215 269.017 181.885 269.824 182.641C270.645 183.383 271.263 184.229 271.68 185.18C272.109 186.13 272.324 187.204 272.324 188.402C272.324 189.678 272.077 190.811 271.582 191.801C271.087 192.79 270.378 193.63 269.453 194.32C268.529 194.997 267.422 195.512 266.133 195.863C264.844 196.215 263.405 196.391 261.816 196.391C260.358 196.391 258.919 196.208 257.5 195.844C256.094 195.466 254.818 194.893 253.672 194.125C252.526 193.344 251.608 192.348 250.918 191.137C250.241 189.913 249.902 188.461 249.902 186.781H256.777C256.777 187.615 256.888 188.318 257.109 188.891C257.331 189.464 257.656 189.926 258.086 190.277C258.516 190.616 259.043 190.863 259.668 191.02C260.293 191.163 261.009 191.234 261.816 191.234C262.689 191.234 263.392 191.111 263.926 190.863C264.46 190.603 264.85 190.264 265.098 189.848C265.345 189.418 265.469 188.949 265.469 188.441ZM279.258 167.562H284.844L291.191 187.348L297.539 167.562H303.125L293.457 196H288.926L279.258 167.562ZM275.859 167.562H281.641L282.715 189.359V196H275.859V167.562ZM300.742 167.562H306.543V196H299.668V189.359L300.742 167.562ZM318.223 167.562V196H311.387V167.562H318.223ZM341.836 190.727V196H327.461V190.727H341.836ZM329.902 167.562V196H323.047V167.562H329.902ZM364.297 190.727V196H349.141V190.727H364.297ZM351.582 167.562V196H344.727V167.562H351.582ZM362.344 178.852V183.949H349.141V178.852H362.344ZM364.355 167.562V172.855H349.141V167.562H364.355Z" fill="white"/>
</g>
<g filter="url(#filter1_i_1416_29905)">
<path d="M116.875 188.441C116.875 187.999 116.81 187.602 116.68 187.25C116.549 186.885 116.309 186.547 115.957 186.234C115.605 185.922 115.098 185.609 114.434 185.297C113.783 184.971 112.923 184.633 111.855 184.281C110.605 183.865 109.401 183.396 108.242 182.875C107.083 182.341 106.048 181.723 105.137 181.02C104.225 180.303 103.503 179.47 102.969 178.52C102.435 177.556 102.168 176.436 102.168 175.16C102.168 173.936 102.441 172.836 102.988 171.859C103.535 170.87 104.297 170.03 105.273 169.34C106.263 168.637 107.422 168.103 108.75 167.738C110.078 167.361 111.53 167.172 113.105 167.172C115.189 167.172 117.025 167.536 118.613 168.266C120.215 168.982 121.465 170.004 122.363 171.332C123.275 172.647 123.73 174.203 123.73 176H116.914C116.914 175.284 116.764 174.652 116.465 174.105C116.178 173.559 115.742 173.129 115.156 172.816C114.57 172.504 113.835 172.348 112.949 172.348C112.09 172.348 111.367 172.478 110.781 172.738C110.195 172.999 109.753 173.35 109.453 173.793C109.154 174.223 109.004 174.698 109.004 175.219C109.004 175.648 109.121 176.039 109.355 176.391C109.603 176.729 109.948 177.048 110.391 177.348C110.846 177.647 111.393 177.934 112.031 178.207C112.682 178.48 113.411 178.747 114.219 179.008C115.729 179.49 117.07 180.03 118.242 180.629C119.427 181.215 120.423 181.885 121.23 182.641C122.051 183.383 122.669 184.229 123.086 185.18C123.516 186.13 123.73 187.204 123.73 188.402C123.73 189.678 123.483 190.811 122.988 191.801C122.493 192.79 121.784 193.63 120.859 194.32C119.935 194.997 118.828 195.512 117.539 195.863C116.25 196.215 114.811 196.391 113.223 196.391C111.764 196.391 110.326 196.208 108.906 195.844C107.5 195.466 106.224 194.893 105.078 194.125C103.932 193.344 103.014 192.348 102.324 191.137C101.647 189.913 101.309 188.461 101.309 186.781H108.184C108.184 187.615 108.294 188.318 108.516 188.891C108.737 189.464 109.062 189.926 109.492 190.277C109.922 190.616 110.449 190.863 111.074 191.02C111.699 191.163 112.415 191.234 113.223 191.234C114.095 191.234 114.798 191.111 115.332 190.863C115.866 190.603 116.257 190.264 116.504 189.848C116.751 189.418 116.875 188.949 116.875 188.441ZM146.836 190.727V196H131.68V190.727H146.836ZM134.121 167.562V196H127.266V167.562H134.121ZM144.883 178.852V183.949H131.68V178.852H144.883ZM146.895 167.562V172.855H131.68V167.562H146.895ZM173.398 167.562V196H166.562L156.504 178.305V196H149.648V167.562H156.504L166.562 185.258V167.562H173.398ZM186.973 196H180.664L180.703 190.727H186.973C188.275 190.727 189.375 190.414 190.273 189.789C191.185 189.164 191.875 188.233 192.344 186.996C192.826 185.746 193.066 184.21 193.066 182.387V181.156C193.066 179.789 192.93 178.591 192.656 177.562C192.396 176.521 192.005 175.655 191.484 174.965C190.964 174.262 190.312 173.734 189.531 173.383C188.763 173.031 187.878 172.855 186.875 172.855H180.547V167.562H186.875C188.802 167.562 190.566 167.895 192.168 168.559C193.783 169.21 195.176 170.147 196.348 171.371C197.533 172.582 198.444 174.021 199.082 175.688C199.733 177.341 200.059 179.177 200.059 181.195V182.387C200.059 184.392 199.733 186.228 199.082 187.895C198.444 189.561 197.539 191 196.367 192.211C195.195 193.422 193.809 194.359 192.207 195.023C190.618 195.674 188.874 196 186.973 196ZM184.59 167.562V196H177.734V167.562H184.59ZM225.645 173.539L218.711 196H211.348L221.797 167.562H226.465L225.645 173.539ZM231.387 196L224.434 173.539L223.535 167.562H228.262L238.77 196H231.387ZM231.113 185.395V190.688H216.523V185.395H231.113ZM265.469 188.441C265.469 187.999 265.404 187.602 265.273 187.25C265.143 186.885 264.902 186.547 264.551 186.234C264.199 185.922 263.691 185.609 263.027 185.297C262.376 184.971 261.517 184.633 260.449 184.281C259.199 183.865 257.995 183.396 256.836 182.875C255.677 182.341 254.642 181.723 253.73 181.02C252.819 180.303 252.096 179.47 251.562 178.52C251.029 177.556 250.762 176.436 250.762 175.16C250.762 173.936 251.035 172.836 251.582 171.859C252.129 170.87 252.891 170.03 253.867 169.34C254.857 168.637 256.016 168.103 257.344 167.738C258.672 167.361 260.124 167.172 261.699 167.172C263.783 167.172 265.618 167.536 267.207 168.266C268.809 168.982 270.059 170.004 270.957 171.332C271.868 172.647 272.324 174.203 272.324 176H265.508C265.508 175.284 265.358 174.652 265.059 174.105C264.772 173.559 264.336 173.129 263.75 172.816C263.164 172.504 262.428 172.348 261.543 172.348C260.684 172.348 259.961 172.478 259.375 172.738C258.789 172.999 258.346 173.35 258.047 173.793C257.747 174.223 257.598 174.698 257.598 175.219C257.598 175.648 257.715 176.039 257.949 176.391C258.197 176.729 258.542 177.048 258.984 177.348C259.44 177.647 259.987 177.934 260.625 178.207C261.276 178.48 262.005 178.747 262.812 179.008C264.323 179.49 265.664 180.03 266.836 180.629C268.021 181.215 269.017 181.885 269.824 182.641C270.645 183.383 271.263 184.229 271.68 185.18C272.109 186.13 272.324 187.204 272.324 188.402C272.324 189.678 272.077 190.811 271.582 191.801C271.087 192.79 270.378 193.63 269.453 194.32C268.529 194.997 267.422 195.512 266.133 195.863C264.844 196.215 263.405 196.391 261.816 196.391C260.358 196.391 258.919 196.208 257.5 195.844C256.094 195.466 254.818 194.893 253.672 194.125C252.526 193.344 251.608 192.348 250.918 191.137C250.241 189.913 249.902 188.461 249.902 186.781H256.777C256.777 187.615 256.888 188.318 257.109 188.891C257.331 189.464 257.656 189.926 258.086 190.277C258.516 190.616 259.043 190.863 259.668 191.02C260.293 191.163 261.009 191.234 261.816 191.234C262.689 191.234 263.392 191.111 263.926 190.863C264.46 190.603 264.85 190.264 265.098 189.848C265.345 189.418 265.469 188.949 265.469 188.441ZM279.258 167.562H284.844L291.191 187.348L297.539 167.562H303.125L293.457 196H288.926L279.258 167.562ZM275.859 167.562H281.641L282.715 189.359V196H275.859V167.562ZM300.742 167.562H306.543V196H299.668V189.359L300.742 167.562ZM318.223 167.562V196H311.387V167.562H318.223ZM341.836 190.727V196H327.461V190.727H341.836ZM329.902 167.562V196H323.047V167.562H329.902ZM364.297 190.727V196H349.141V190.727H364.297ZM351.582 167.562V196H344.727V167.562H351.582ZM362.344 178.852V183.949H349.141V178.852H362.344ZM364.355 167.562V172.855H349.141V167.562H364.355Z" fill="#EFEFEF"/>
</g>
<path d="M8.21484 403.637H3.77344V401.305H8.21484C8.98828 401.305 9.61328 401.18 10.0898 400.93C10.5664 400.68 10.9141 400.336 11.1328 399.898C11.3594 399.453 11.4727 398.945 11.4727 398.375C11.4727 397.836 11.3594 397.332 11.1328 396.863C10.9141 396.387 10.5664 396.004 10.0898 395.715C9.61328 395.426 8.98828 395.281 8.21484 395.281H4.67578V410H1.73438V392.938H8.21484C9.53516 392.938 10.6562 393.172 11.5781 393.641C12.5078 394.102 13.2148 394.742 13.6992 395.562C14.1836 396.375 14.4258 397.305 14.4258 398.352C14.4258 399.453 14.1836 400.398 13.6992 401.188C13.2148 401.977 12.5078 402.582 11.5781 403.004C10.6562 403.426 9.53516 403.637 8.21484 403.637ZM19.5703 392V410H16.7578V392H19.5703ZM19.0781 403.191L18.1641 403.18C18.1719 402.305 18.293 401.496 18.5273 400.754C18.7695 400.012 19.1055 399.367 19.5352 398.82C19.9727 398.266 20.4961 397.84 21.1055 397.543C21.7148 397.238 22.3906 397.086 23.1328 397.086C23.7578 397.086 24.3203 397.172 24.8203 397.344C25.3281 397.516 25.7656 397.793 26.1328 398.176C26.5 398.551 26.7773 399.043 26.9648 399.652C27.1602 400.254 27.2578 400.988 27.2578 401.855V410H24.4219V401.832C24.4219 401.223 24.332 400.738 24.1523 400.379C23.9805 400.02 23.7266 399.762 23.3906 399.605C23.0547 399.441 22.6445 399.359 22.1602 399.359C21.6523 399.359 21.2031 399.461 20.8125 399.664C20.4297 399.867 20.1094 400.145 19.8516 400.496C19.5938 400.848 19.3984 401.254 19.2656 401.715C19.1406 402.176 19.0781 402.668 19.0781 403.191ZM33.7969 408.617L37.2422 397.32H40.2656L35.1797 411.934C35.0625 412.246 34.9102 412.586 34.7227 412.953C34.5352 413.32 34.2891 413.668 33.9844 413.996C33.6875 414.332 33.3164 414.602 32.8711 414.805C32.4258 415.016 31.8867 415.121 31.2539 415.121C31.0039 415.121 30.7617 415.098 30.5273 415.051C30.3008 415.012 30.0859 414.969 29.8828 414.922L29.8711 412.766C29.9492 412.773 30.043 412.781 30.1523 412.789C30.2695 412.797 30.3633 412.801 30.4336 412.801C30.9023 412.801 31.293 412.742 31.6055 412.625C31.918 412.516 32.1719 412.336 32.3672 412.086C32.5703 411.836 32.7422 411.5 32.8828 411.078L33.7969 408.617ZM31.8516 397.32L34.8633 406.812L35.3672 409.789L33.4102 410.293L28.8047 397.32H31.8516ZM48.9961 406.566C48.9961 406.285 48.9258 406.031 48.7852 405.805C48.6445 405.57 48.375 405.359 47.9766 405.172C47.5859 404.984 47.0078 404.812 46.2422 404.656C45.5703 404.508 44.9531 404.332 44.3906 404.129C43.8359 403.918 43.3594 403.664 42.9609 403.367C42.5625 403.07 42.2539 402.719 42.0352 402.312C41.8164 401.906 41.707 401.438 41.707 400.906C41.707 400.391 41.8203 399.902 42.0469 399.441C42.2734 398.98 42.5977 398.574 43.0195 398.223C43.4414 397.871 43.9531 397.594 44.5547 397.391C45.1641 397.188 45.8438 397.086 46.5938 397.086C47.6562 397.086 48.5664 397.266 49.3242 397.625C50.0898 397.977 50.6758 398.457 51.082 399.066C51.4883 399.668 51.6914 400.348 51.6914 401.105H48.8672C48.8672 400.77 48.7812 400.457 48.6094 400.168C48.4453 399.871 48.1953 399.633 47.8594 399.453C47.5234 399.266 47.1016 399.172 46.5938 399.172C46.1094 399.172 45.707 399.25 45.3867 399.406C45.0742 399.555 44.8398 399.75 44.6836 399.992C44.5352 400.234 44.4609 400.5 44.4609 400.789C44.4609 401 44.5 401.191 44.5781 401.363C44.6641 401.527 44.8047 401.68 45 401.82C45.1953 401.953 45.4609 402.078 45.7969 402.195C46.1406 402.312 46.5703 402.426 47.0859 402.535C48.0547 402.738 48.8867 403 49.582 403.32C50.2852 403.633 50.8242 404.039 51.1992 404.539C51.5742 405.031 51.7617 405.656 51.7617 406.414C51.7617 406.977 51.6406 407.492 51.3984 407.961C51.1641 408.422 50.8203 408.824 50.3672 409.168C49.9141 409.504 49.3711 409.766 48.7383 409.953C48.1133 410.141 47.4102 410.234 46.6289 410.234C45.4805 410.234 44.5078 410.031 43.7109 409.625C42.9141 409.211 42.3086 408.684 41.8945 408.043C41.4883 407.395 41.2852 406.723 41.2852 406.027H44.0156C44.0469 406.551 44.1914 406.969 44.4492 407.281C44.7148 407.586 45.043 407.809 45.4336 407.949C45.832 408.082 46.2422 408.148 46.6641 408.148C47.1719 408.148 47.5977 408.082 47.9414 407.949C48.2852 407.809 48.5469 407.621 48.7266 407.387C48.9062 407.145 48.9961 406.871 48.9961 406.566ZM57.2578 397.32V410H54.4219V397.32H57.2578ZM54.2344 393.992C54.2344 393.562 54.375 393.207 54.6562 392.926C54.9453 392.637 55.3438 392.492 55.8516 392.492C56.3516 392.492 56.7461 392.637 57.0352 392.926C57.3242 393.207 57.4688 393.562 57.4688 393.992C57.4688 394.414 57.3242 394.766 57.0352 395.047C56.7461 395.328 56.3516 395.469 55.8516 395.469C55.3438 395.469 54.9453 395.328 54.6562 395.047C54.375 394.766 54.2344 394.414 54.2344 393.992ZM65.5312 407.984C65.9922 407.984 66.4062 407.895 66.7734 407.715C67.1484 407.527 67.4492 407.27 67.6758 406.941C67.9102 406.613 68.0391 406.234 68.0625 405.805H70.7227C70.707 406.625 70.4648 407.371 69.9961 408.043C69.5273 408.715 68.9062 409.25 68.1328 409.648C67.3594 410.039 66.5039 410.234 65.5664 410.234C64.5977 410.234 63.7539 410.07 63.0352 409.742C62.3164 409.406 61.7188 408.945 61.2422 408.359C60.7656 407.773 60.4062 407.098 60.1641 406.332C59.9297 405.566 59.8125 404.746 59.8125 403.871V403.461C59.8125 402.586 59.9297 401.766 60.1641 401C60.4062 400.227 60.7656 399.547 61.2422 398.961C61.7188 398.375 62.3164 397.918 63.0352 397.59C63.7539 397.254 64.5938 397.086 65.5547 397.086C66.5703 397.086 67.4609 397.289 68.2266 397.695C68.9922 398.094 69.5938 398.652 70.0312 399.371C70.4766 400.082 70.707 400.91 70.7227 401.855H68.0625C68.0391 401.387 67.9219 400.965 67.7109 400.59C67.5078 400.207 67.2188 399.902 66.8438 399.676C66.4766 399.449 66.0352 399.336 65.5195 399.336C64.9492 399.336 64.4766 399.453 64.1016 399.688C63.7266 399.914 63.4336 400.227 63.2227 400.625C63.0117 401.016 62.8594 401.457 62.7656 401.949C62.6797 402.434 62.6367 402.938 62.6367 403.461V403.871C62.6367 404.395 62.6797 404.902 62.7656 405.395C62.8516 405.887 63 406.328 63.2109 406.719C63.4297 407.102 63.7266 407.41 64.1016 407.645C64.4766 407.871 64.9531 407.984 65.5312 407.984ZM80.0391 407.457V401.41C80.0391 400.957 79.957 400.566 79.793 400.238C79.6289 399.91 79.3789 399.656 79.043 399.477C78.7148 399.297 78.3008 399.207 77.8008 399.207C77.3398 399.207 76.9414 399.285 76.6055 399.441C76.2695 399.598 76.0078 399.809 75.8203 400.074C75.6328 400.34 75.5391 400.641 75.5391 400.977H72.7266C72.7266 400.477 72.8477 399.992 73.0898 399.523C73.332 399.055 73.6836 398.637 74.1445 398.27C74.6055 397.902 75.1562 397.613 75.7969 397.402C76.4375 397.191 77.1562 397.086 77.9531 397.086C78.9062 397.086 79.75 397.246 80.4844 397.566C81.2266 397.887 81.8086 398.371 82.2305 399.02C82.6602 399.66 82.875 400.465 82.875 401.434V407.07C82.875 407.648 82.9141 408.168 82.9922 408.629C83.0781 409.082 83.1992 409.477 83.3555 409.812V410H80.4609C80.3281 409.695 80.2227 409.309 80.1445 408.84C80.0742 408.363 80.0391 407.902 80.0391 407.457ZM80.4492 402.289L80.4727 404.035H78.4453C77.9219 404.035 77.4609 404.086 77.0625 404.188C76.6641 404.281 76.332 404.422 76.0664 404.609C75.8008 404.797 75.6016 405.023 75.4688 405.289C75.3359 405.555 75.2695 405.855 75.2695 406.191C75.2695 406.527 75.3477 406.836 75.5039 407.117C75.6602 407.391 75.8867 407.605 76.1836 407.762C76.4883 407.918 76.8555 407.996 77.2852 407.996C77.8633 407.996 78.3672 407.879 78.7969 407.645C79.2344 407.402 79.5781 407.109 79.8281 406.766C80.0781 406.414 80.2109 406.082 80.2266 405.77L81.1406 407.023C81.0469 407.344 80.8867 407.688 80.6602 408.055C80.4336 408.422 80.1367 408.773 79.7695 409.109C79.4102 409.438 78.9766 409.707 78.4688 409.918C77.9688 410.129 77.3906 410.234 76.7344 410.234C75.9062 410.234 75.168 410.07 74.5195 409.742C73.8711 409.406 73.3633 408.957 72.9961 408.395C72.6289 407.824 72.4453 407.18 72.4453 406.461C72.4453 405.789 72.5703 405.195 72.8203 404.68C73.0781 404.156 73.4531 403.719 73.9453 403.367C74.4453 403.016 75.0547 402.75 75.7734 402.57C76.4922 402.383 77.3125 402.289 78.2344 402.289H80.4492ZM88.8516 392V410H86.0156V392H88.8516ZM106.043 397.32H108.609V409.648C108.609 410.789 108.367 411.758 107.883 412.555C107.398 413.352 106.723 413.957 105.855 414.371C104.988 414.793 103.984 415.004 102.844 415.004C102.359 415.004 101.82 414.934 101.227 414.793C100.641 414.652 100.07 414.426 99.5156 414.113C98.9688 413.809 98.5117 413.406 98.1445 412.906L99.4688 411.242C99.9219 411.781 100.422 412.176 100.969 412.426C101.516 412.676 102.09 412.801 102.691 412.801C103.34 412.801 103.891 412.68 104.344 412.438C104.805 412.203 105.16 411.855 105.41 411.395C105.66 410.934 105.785 410.371 105.785 409.707V400.191L106.043 397.32ZM97.4297 403.801V403.555C97.4297 402.594 97.5469 401.719 97.7812 400.93C98.0156 400.133 98.3516 399.449 98.7891 398.879C99.2266 398.301 99.7578 397.859 100.383 397.555C101.008 397.242 101.715 397.086 102.504 397.086C103.324 397.086 104.023 397.234 104.602 397.531C105.188 397.828 105.676 398.254 106.066 398.809C106.457 399.355 106.762 400.012 106.98 400.777C107.207 401.535 107.375 402.379 107.484 403.309V404.094C107.383 405 107.211 405.828 106.969 406.578C106.727 407.328 106.406 407.977 106.008 408.523C105.609 409.07 105.117 409.492 104.531 409.789C103.953 410.086 103.27 410.234 102.48 410.234C101.707 410.234 101.008 410.074 100.383 409.754C99.7656 409.434 99.2344 408.984 98.7891 408.406C98.3516 407.828 98.0156 407.148 97.7812 406.367C97.5469 405.578 97.4297 404.723 97.4297 403.801ZM100.254 403.555V403.801C100.254 404.379 100.309 404.918 100.418 405.418C100.535 405.918 100.711 406.359 100.945 406.742C101.188 407.117 101.492 407.414 101.859 407.633C102.234 407.844 102.676 407.949 103.184 407.949C103.848 407.949 104.391 407.809 104.812 407.527C105.242 407.246 105.57 406.867 105.797 406.391C106.031 405.906 106.195 405.367 106.289 404.773V402.652C106.242 402.191 106.145 401.762 105.996 401.363C105.855 400.965 105.664 400.617 105.422 400.32C105.18 400.016 104.875 399.781 104.508 399.617C104.141 399.445 103.707 399.359 103.207 399.359C102.699 399.359 102.258 399.469 101.883 399.688C101.508 399.906 101.199 400.207 100.957 400.59C100.723 400.973 100.547 401.418 100.43 401.926C100.312 402.434 100.254 402.977 100.254 403.555ZM114.562 397.32V410H111.727V397.32H114.562ZM111.539 393.992C111.539 393.562 111.68 393.207 111.961 392.926C112.25 392.637 112.648 392.492 113.156 392.492C113.656 392.492 114.051 392.637 114.34 392.926C114.629 393.207 114.773 393.562 114.773 393.992C114.773 394.414 114.629 394.766 114.34 395.047C114.051 395.328 113.656 395.469 113.156 395.469C112.648 395.469 112.25 395.328 111.961 395.047C111.68 394.766 111.539 394.414 111.539 393.992ZM121.477 410H118.652V396.102C118.652 395.156 118.828 394.363 119.18 393.723C119.539 393.074 120.051 392.586 120.715 392.258C121.379 391.922 122.164 391.754 123.07 391.754C123.352 391.754 123.629 391.773 123.902 391.812C124.176 391.844 124.441 391.895 124.699 391.965L124.629 394.145C124.473 394.105 124.301 394.078 124.113 394.062C123.934 394.047 123.738 394.039 123.527 394.039C123.098 394.039 122.727 394.121 122.414 394.285C122.109 394.441 121.875 394.672 121.711 394.977C121.555 395.281 121.477 395.656 121.477 396.102V410ZM124.09 397.32V399.383H116.707V397.32H124.09ZM131.953 397.32V399.383H124.805V397.32H131.953ZM126.867 394.215H129.691V406.496C129.691 406.887 129.746 407.188 129.855 407.398C129.973 407.602 130.133 407.738 130.336 407.809C130.539 407.879 130.777 407.914 131.051 407.914C131.246 407.914 131.434 407.902 131.613 407.879C131.793 407.855 131.938 407.832 132.047 407.809L132.059 409.965C131.824 410.035 131.551 410.098 131.238 410.152C130.934 410.207 130.582 410.234 130.184 410.234C129.535 410.234 128.961 410.121 128.461 409.895C127.961 409.66 127.57 409.281 127.289 408.758C127.008 408.234 126.867 407.539 126.867 406.672V394.215ZM145.289 407.984C145.75 407.984 146.164 407.895 146.531 407.715C146.906 407.527 147.207 407.27 147.434 406.941C147.668 406.613 147.797 406.234 147.82 405.805H150.48C150.465 406.625 150.223 407.371 149.754 408.043C149.285 408.715 148.664 409.25 147.891 409.648C147.117 410.039 146.262 410.234 145.324 410.234C144.355 410.234 143.512 410.07 142.793 409.742C142.074 409.406 141.477 408.945 141 408.359C140.523 407.773 140.164 407.098 139.922 406.332C139.688 405.566 139.57 404.746 139.57 403.871V403.461C139.57 402.586 139.688 401.766 139.922 401C140.164 400.227 140.523 399.547 141 398.961C141.477 398.375 142.074 397.918 142.793 397.59C143.512 397.254 144.352 397.086 145.312 397.086C146.328 397.086 147.219 397.289 147.984 397.695C148.75 398.094 149.352 398.652 149.789 399.371C150.234 400.082 150.465 400.91 150.48 401.855H147.82C147.797 401.387 147.68 400.965 147.469 400.59C147.266 400.207 146.977 399.902 146.602 399.676C146.234 399.449 145.793 399.336 145.277 399.336C144.707 399.336 144.234 399.453 143.859 399.688C143.484 399.914 143.191 400.227 142.98 400.625C142.77 401.016 142.617 401.457 142.523 401.949C142.438 402.434 142.395 402.938 142.395 403.461V403.871C142.395 404.395 142.438 404.902 142.523 405.395C142.609 405.887 142.758 406.328 142.969 406.719C143.188 407.102 143.484 407.41 143.859 407.645C144.234 407.871 144.711 407.984 145.289 407.984ZM159.797 407.457V401.41C159.797 400.957 159.715 400.566 159.551 400.238C159.387 399.91 159.137 399.656 158.801 399.477C158.473 399.297 158.059 399.207 157.559 399.207C157.098 399.207 156.699 399.285 156.363 399.441C156.027 399.598 155.766 399.809 155.578 400.074C155.391 400.34 155.297 400.641 155.297 400.977H152.484C152.484 400.477 152.605 399.992 152.848 399.523C153.09 399.055 153.441 398.637 153.902 398.27C154.363 397.902 154.914 397.613 155.555 397.402C156.195 397.191 156.914 397.086 157.711 397.086C158.664 397.086 159.508 397.246 160.242 397.566C160.984 397.887 161.566 398.371 161.988 399.02C162.418 399.66 162.633 400.465 162.633 401.434V407.07C162.633 407.648 162.672 408.168 162.75 408.629C162.836 409.082 162.957 409.477 163.113 409.812V410H160.219C160.086 409.695 159.98 409.309 159.902 408.84C159.832 408.363 159.797 407.902 159.797 407.457ZM160.207 402.289L160.23 404.035H158.203C157.68 404.035 157.219 404.086 156.82 404.188C156.422 404.281 156.09 404.422 155.824 404.609C155.559 404.797 155.359 405.023 155.227 405.289C155.094 405.555 155.027 405.855 155.027 406.191C155.027 406.527 155.105 406.836 155.262 407.117C155.418 407.391 155.645 407.605 155.941 407.762C156.246 407.918 156.613 407.996 157.043 407.996C157.621 407.996 158.125 407.879 158.555 407.645C158.992 407.402 159.336 407.109 159.586 406.766C159.836 406.414 159.969 406.082 159.984 405.77L160.898 407.023C160.805 407.344 160.645 407.688 160.418 408.055C160.191 408.422 159.895 408.773 159.527 409.109C159.168 409.438 158.734 409.707 158.227 409.918C157.727 410.129 157.148 410.234 156.492 410.234C155.664 410.234 154.926 410.07 154.277 409.742C153.629 409.406 153.121 408.957 152.754 408.395C152.387 407.824 152.203 407.18 152.203 406.461C152.203 405.789 152.328 405.195 152.578 404.68C152.836 404.156 153.211 403.719 153.703 403.367C154.203 403.016 154.812 402.75 155.531 402.57C156.25 402.383 157.07 402.289 157.992 402.289H160.207ZM168.422 399.734V410H165.598V397.32H168.293L168.422 399.734ZM172.301 397.238L172.277 399.863C172.105 399.832 171.918 399.809 171.715 399.793C171.52 399.777 171.324 399.77 171.129 399.77C170.645 399.77 170.219 399.84 169.852 399.98C169.484 400.113 169.176 400.309 168.926 400.566C168.684 400.816 168.496 401.121 168.363 401.48C168.23 401.84 168.152 402.242 168.129 402.688L167.484 402.734C167.484 401.938 167.562 401.199 167.719 400.52C167.875 399.84 168.109 399.242 168.422 398.727C168.742 398.211 169.141 397.809 169.617 397.52C170.102 397.23 170.66 397.086 171.293 397.086C171.465 397.086 171.648 397.102 171.844 397.133C172.047 397.164 172.199 397.199 172.301 397.238ZM181.57 407.375V392H184.406V410H181.84L181.57 407.375ZM173.32 403.801V403.555C173.32 402.594 173.434 401.719 173.66 400.93C173.887 400.133 174.215 399.449 174.645 398.879C175.074 398.301 175.598 397.859 176.215 397.555C176.832 397.242 177.527 397.086 178.301 397.086C179.066 397.086 179.738 397.234 180.316 397.531C180.895 397.828 181.387 398.254 181.793 398.809C182.199 399.355 182.523 400.012 182.766 400.777C183.008 401.535 183.18 402.379 183.281 403.309V404.094C183.18 405 183.008 405.828 182.766 406.578C182.523 407.328 182.199 407.977 181.793 408.523C181.387 409.07 180.891 409.492 180.305 409.789C179.727 410.086 179.051 410.234 178.277 410.234C177.512 410.234 176.82 410.074 176.203 409.754C175.594 409.434 175.074 408.984 174.645 408.406C174.215 407.828 173.887 407.148 173.66 406.367C173.434 405.578 173.32 404.723 173.32 403.801ZM176.145 403.555V403.801C176.145 404.379 176.195 404.918 176.297 405.418C176.406 405.918 176.574 406.359 176.801 406.742C177.027 407.117 177.32 407.414 177.68 407.633C178.047 407.844 178.484 407.949 178.992 407.949C179.633 407.949 180.16 407.809 180.574 407.527C180.988 407.246 181.312 406.867 181.547 406.391C181.789 405.906 181.953 405.367 182.039 404.773V402.652C181.992 402.191 181.895 401.762 181.746 401.363C181.605 400.965 181.414 400.617 181.172 400.32C180.93 400.016 180.629 399.781 180.27 399.617C179.918 399.445 179.5 399.359 179.016 399.359C178.5 399.359 178.062 399.469 177.703 399.688C177.344 399.906 177.047 400.207 176.812 400.59C176.586 400.973 176.418 401.418 176.309 401.926C176.199 402.434 176.145 402.977 176.145 403.555ZM194.473 406.566C194.473 406.285 194.402 406.031 194.262 405.805C194.121 405.57 193.852 405.359 193.453 405.172C193.062 404.984 192.484 404.812 191.719 404.656C191.047 404.508 190.43 404.332 189.867 404.129C189.312 403.918 188.836 403.664 188.438 403.367C188.039 403.07 187.73 402.719 187.512 402.312C187.293 401.906 187.184 401.438 187.184 400.906C187.184 400.391 187.297 399.902 187.523 399.441C187.75 398.98 188.074 398.574 188.496 398.223C188.918 397.871 189.43 397.594 190.031 397.391C190.641 397.188 191.32 397.086 192.07 397.086C193.133 397.086 194.043 397.266 194.801 397.625C195.566 397.977 196.152 398.457 196.559 399.066C196.965 399.668 197.168 400.348 197.168 401.105H194.344C194.344 400.77 194.258 400.457 194.086 400.168C193.922 399.871 193.672 399.633 193.336 399.453C193 399.266 192.578 399.172 192.07 399.172C191.586 399.172 191.184 399.25 190.863 399.406C190.551 399.555 190.316 399.75 190.16 399.992C190.012 400.234 189.938 400.5 189.938 400.789C189.938 401 189.977 401.191 190.055 401.363C190.141 401.527 190.281 401.68 190.477 401.82C190.672 401.953 190.938 402.078 191.273 402.195C191.617 402.312 192.047 402.426 192.562 402.535C193.531 402.738 194.363 403 195.059 403.32C195.762 403.633 196.301 404.039 196.676 404.539C197.051 405.031 197.238 405.656 197.238 406.414C197.238 406.977 197.117 407.492 196.875 407.961C196.641 408.422 196.297 408.824 195.844 409.168C195.391 409.504 194.848 409.766 194.215 409.953C193.59 410.141 192.887 410.234 192.105 410.234C190.957 410.234 189.984 410.031 189.188 409.625C188.391 409.211 187.785 408.684 187.371 408.043C186.965 407.395 186.762 406.723 186.762 406.027H189.492C189.523 406.551 189.668 406.969 189.926 407.281C190.191 407.586 190.52 407.809 190.91 407.949C191.309 408.082 191.719 408.148 192.141 408.148C192.648 408.148 193.074 408.082 193.418 407.949C193.762 407.809 194.023 407.621 194.203 407.387C194.383 407.145 194.473 406.871 194.473 406.566Z" fill="#333333"/>
<path d="M8.30566 449.766C8.30566 449.467 8.25879 449.203 8.16504 448.975C8.07715 448.74 7.91895 448.529 7.69043 448.342C7.46777 448.154 7.15723 447.976 6.75879 447.806C6.36621 447.636 5.86816 447.463 5.26465 447.287C4.63184 447.1 4.06055 446.892 3.55078 446.663C3.04102 446.429 2.60449 446.162 2.24121 445.863C1.87793 445.564 1.59961 445.222 1.40625 444.835C1.21289 444.448 1.11621 444.006 1.11621 443.508C1.11621 443.01 1.21875 442.55 1.42383 442.128C1.62891 441.706 1.92188 441.34 2.30273 441.029C2.68945 440.713 3.14941 440.467 3.68262 440.291C4.21582 440.115 4.81055 440.027 5.4668 440.027C6.42773 440.027 7.24219 440.212 7.91016 440.581C8.58398 440.944 9.09668 441.422 9.44824 442.014C9.7998 442.6 9.97559 443.227 9.97559 443.895H8.28809C8.28809 443.414 8.18555 442.989 7.98047 442.62C7.77539 442.245 7.46484 441.952 7.04883 441.741C6.63281 441.524 6.10547 441.416 5.4668 441.416C4.86328 441.416 4.36523 441.507 3.97266 441.688C3.58008 441.87 3.28711 442.116 3.09375 442.427C2.90625 442.737 2.8125 443.092 2.8125 443.49C2.8125 443.76 2.86816 444.006 2.97949 444.229C3.09668 444.445 3.27539 444.647 3.51562 444.835C3.76172 445.022 4.07227 445.195 4.44727 445.354C4.82812 445.512 5.28223 445.664 5.80957 445.811C6.53613 446.016 7.16309 446.244 7.69043 446.496C8.21777 446.748 8.65137 447.032 8.99121 447.349C9.33691 447.659 9.5918 448.014 9.75586 448.412C9.92578 448.805 10.0107 449.25 10.0107 449.748C10.0107 450.27 9.90527 450.741 9.69434 451.163C9.4834 451.585 9.18164 451.945 8.78906 452.244C8.39648 452.543 7.9248 452.774 7.37402 452.938C6.8291 453.097 6.21973 453.176 5.5459 453.176C4.9541 453.176 4.37109 453.094 3.79688 452.93C3.22852 452.766 2.70996 452.52 2.24121 452.191C1.77832 451.863 1.40625 451.459 1.125 450.979C0.849609 450.492 0.711914 449.93 0.711914 449.291H2.39941C2.39941 449.73 2.48438 450.108 2.6543 450.425C2.82422 450.735 3.05566 450.993 3.34863 451.198C3.64746 451.403 3.98438 451.556 4.35938 451.655C4.74023 451.749 5.13574 451.796 5.5459 451.796C6.1377 451.796 6.63867 451.714 7.04883 451.55C7.45898 451.386 7.76953 451.151 7.98047 450.847C8.19727 450.542 8.30566 450.182 8.30566 449.766ZM15.873 453.176C15.2109 453.176 14.6104 453.064 14.0713 452.842C13.5381 452.613 13.0781 452.294 12.6914 451.884C12.3105 451.474 12.0176 450.987 11.8125 450.425C11.6074 449.862 11.5049 449.247 11.5049 448.579V448.21C11.5049 447.437 11.6191 446.748 11.8477 446.145C12.0762 445.535 12.3867 445.02 12.7793 444.598C13.1719 444.176 13.6172 443.856 14.1152 443.64C14.6133 443.423 15.1289 443.314 15.6621 443.314C16.3418 443.314 16.9277 443.432 17.4199 443.666C17.918 443.9 18.3252 444.229 18.6416 444.65C18.958 445.066 19.1924 445.559 19.3447 446.127C19.4971 446.689 19.5732 447.305 19.5732 447.973V448.702H12.4717V447.375H17.9473V447.252C17.9238 446.83 17.8359 446.42 17.6836 446.021C17.5371 445.623 17.3027 445.295 16.9805 445.037C16.6582 444.779 16.2188 444.65 15.6621 444.65C15.293 444.65 14.9531 444.729 14.6426 444.888C14.332 445.04 14.0654 445.269 13.8428 445.573C13.6201 445.878 13.4473 446.25 13.3242 446.689C13.2012 447.129 13.1396 447.636 13.1396 448.21V448.579C13.1396 449.03 13.2012 449.455 13.3242 449.854C13.4531 450.246 13.6377 450.592 13.8779 450.891C14.124 451.189 14.4199 451.424 14.7656 451.594C15.1172 451.764 15.5156 451.849 15.9609 451.849C16.5352 451.849 17.0215 451.731 17.4199 451.497C17.8184 451.263 18.167 450.949 18.4658 450.557L19.4502 451.339C19.2451 451.649 18.9844 451.945 18.668 452.227C18.3516 452.508 17.9619 452.736 17.499 452.912C17.042 453.088 16.5 453.176 15.873 453.176ZM23.0977 445.521V453H21.4717V443.49H23.0098L23.0977 445.521ZM22.7109 447.885L22.0342 447.858C22.04 447.208 22.1367 446.607 22.3242 446.057C22.5117 445.5 22.7754 445.017 23.1152 444.606C23.4551 444.196 23.8594 443.88 24.3281 443.657C24.8027 443.429 25.3271 443.314 25.9014 443.314C26.3701 443.314 26.792 443.379 27.167 443.508C27.542 443.631 27.8613 443.83 28.125 444.105C28.3945 444.381 28.5996 444.738 28.7402 445.178C28.8809 445.611 28.9512 446.142 28.9512 446.769V453H27.3164V446.751C27.3164 446.253 27.2432 445.854 27.0967 445.556C26.9502 445.251 26.7363 445.031 26.4551 444.896C26.1738 444.756 25.8281 444.686 25.418 444.686C25.0137 444.686 24.6445 444.771 24.3105 444.94C23.9824 445.11 23.6982 445.345 23.458 445.644C23.2236 445.942 23.0391 446.285 22.9043 446.672C22.7754 447.053 22.7109 447.457 22.7109 447.885ZM37.415 451.154V439.5H39.0498V453H37.5557L37.415 451.154ZM31.0166 448.351V448.166C31.0166 447.439 31.1045 446.78 31.2803 446.188C31.4619 445.591 31.7168 445.078 32.0449 444.65C32.3789 444.223 32.7744 443.895 33.2314 443.666C33.6943 443.432 34.21 443.314 34.7783 443.314C35.376 443.314 35.8975 443.42 36.3428 443.631C36.7939 443.836 37.1748 444.138 37.4854 444.536C37.8018 444.929 38.0508 445.403 38.2324 445.96C38.4141 446.517 38.54 447.146 38.6104 447.85V448.658C38.5459 449.355 38.4199 449.982 38.2324 450.539C38.0508 451.096 37.8018 451.57 37.4854 451.963C37.1748 452.355 36.7939 452.657 36.3428 452.868C35.8916 453.073 35.3643 453.176 34.7607 453.176C34.2041 453.176 33.6943 453.056 33.2314 452.815C32.7744 452.575 32.3789 452.238 32.0449 451.805C31.7168 451.371 31.4619 450.861 31.2803 450.275C31.1045 449.684 31.0166 449.042 31.0166 448.351ZM32.6514 448.166V448.351C32.6514 448.825 32.6982 449.271 32.792 449.687C32.8916 450.103 33.0439 450.469 33.249 450.785C33.4541 451.102 33.7148 451.351 34.0312 451.532C34.3477 451.708 34.7256 451.796 35.165 451.796C35.7041 451.796 36.1465 451.682 36.4922 451.453C36.8438 451.225 37.125 450.923 37.3359 450.548C37.5469 450.173 37.7109 449.766 37.8281 449.326V447.208C37.7578 446.886 37.6553 446.575 37.5205 446.276C37.3916 445.972 37.2217 445.702 37.0107 445.468C36.8057 445.228 36.5508 445.037 36.2461 444.896C35.9473 444.756 35.5928 444.686 35.1826 444.686C34.7373 444.686 34.3535 444.779 34.0312 444.967C33.7148 445.148 33.4541 445.4 33.249 445.723C33.0439 446.039 32.8916 446.408 32.792 446.83C32.6982 447.246 32.6514 447.691 32.6514 448.166ZM51.6533 451.374V446.479C51.6533 446.104 51.5771 445.778 51.4248 445.503C51.2783 445.222 51.0557 445.005 50.7568 444.853C50.458 444.7 50.0889 444.624 49.6494 444.624C49.2393 444.624 48.8789 444.694 48.5684 444.835C48.2637 444.976 48.0234 445.16 47.8477 445.389C47.6777 445.617 47.5928 445.863 47.5928 446.127H45.9668C45.9668 445.787 46.0547 445.45 46.2305 445.116C46.4062 444.782 46.6582 444.48 46.9863 444.211C47.3203 443.936 47.7188 443.719 48.1816 443.561C48.6504 443.396 49.1719 443.314 49.7461 443.314C50.4375 443.314 51.0469 443.432 51.5742 443.666C52.1074 443.9 52.5234 444.255 52.8223 444.729C53.127 445.198 53.2793 445.787 53.2793 446.496V450.926C53.2793 451.242 53.3057 451.579 53.3584 451.937C53.417 452.294 53.502 452.602 53.6133 452.859V453H51.917C51.835 452.812 51.7705 452.563 51.7236 452.253C51.6768 451.937 51.6533 451.644 51.6533 451.374ZM51.9346 447.234L51.9521 448.377H50.3086C49.8457 448.377 49.4326 448.415 49.0693 448.491C48.7061 448.562 48.4014 448.67 48.1553 448.816C47.9092 448.963 47.7217 449.147 47.5928 449.37C47.4639 449.587 47.3994 449.842 47.3994 450.135C47.3994 450.434 47.4668 450.706 47.6016 450.952C47.7363 451.198 47.9385 451.395 48.208 451.541C48.4834 451.682 48.8203 451.752 49.2188 451.752C49.7168 451.752 50.1562 451.646 50.5371 451.436C50.918 451.225 51.2197 450.967 51.4424 450.662C51.6709 450.357 51.7939 450.062 51.8115 449.774L52.5059 450.557C52.4648 450.803 52.3535 451.075 52.1719 451.374C51.9902 451.673 51.7471 451.96 51.4424 452.235C51.1436 452.505 50.7861 452.73 50.3701 452.912C49.96 453.088 49.4971 453.176 48.9814 453.176C48.3369 453.176 47.7715 453.05 47.2852 452.798C46.8047 452.546 46.4297 452.209 46.1602 451.787C45.8965 451.359 45.7646 450.882 45.7646 450.354C45.7646 449.845 45.8643 449.396 46.0635 449.01C46.2627 448.617 46.5498 448.292 46.9248 448.034C47.2998 447.771 47.751 447.571 48.2783 447.437C48.8057 447.302 49.3945 447.234 50.0449 447.234H51.9346ZM65.8389 450.478C65.8389 450.243 65.7861 450.026 65.6807 449.827C65.5811 449.622 65.373 449.438 65.0566 449.273C64.7461 449.104 64.2773 448.957 63.6504 448.834C63.123 448.723 62.6455 448.591 62.2178 448.438C61.7959 448.286 61.4355 448.102 61.1367 447.885C60.8438 447.668 60.6182 447.413 60.46 447.12C60.3018 446.827 60.2227 446.484 60.2227 446.092C60.2227 445.717 60.3047 445.362 60.4688 445.028C60.6387 444.694 60.876 444.398 61.1807 444.141C61.4912 443.883 61.8633 443.681 62.2969 443.534C62.7305 443.388 63.2139 443.314 63.7471 443.314C64.5088 443.314 65.1592 443.449 65.6982 443.719C66.2373 443.988 66.6504 444.349 66.9375 444.8C67.2246 445.245 67.3682 445.74 67.3682 446.285H65.7422C65.7422 446.021 65.6631 445.767 65.5049 445.521C65.3525 445.269 65.127 445.061 64.8281 444.896C64.5352 444.732 64.1748 444.65 63.7471 444.65C63.2959 444.65 62.9297 444.721 62.6484 444.861C62.373 444.996 62.1709 445.169 62.042 445.38C61.9189 445.591 61.8574 445.813 61.8574 446.048C61.8574 446.224 61.8867 446.382 61.9453 446.522C62.0098 446.657 62.1211 446.783 62.2793 446.9C62.4375 447.012 62.6602 447.117 62.9473 447.217C63.2344 447.316 63.6006 447.416 64.0459 447.516C64.8252 447.691 65.4668 447.902 65.9707 448.148C66.4746 448.395 66.8496 448.696 67.0957 449.054C67.3418 449.411 67.4648 449.845 67.4648 450.354C67.4648 450.771 67.377 451.151 67.2012 451.497C67.0312 451.843 66.7822 452.142 66.4541 452.394C66.1318 452.64 65.7451 452.833 65.2939 452.974C64.8486 453.108 64.3477 453.176 63.791 453.176C62.9531 453.176 62.2441 453.026 61.6641 452.728C61.084 452.429 60.6445 452.042 60.3457 451.567C60.0469 451.093 59.8975 450.592 59.8975 450.064H61.5322C61.5557 450.51 61.6846 450.864 61.9189 451.128C62.1533 451.386 62.4404 451.57 62.7803 451.682C63.1201 451.787 63.457 451.84 63.791 451.84C64.2363 451.84 64.6084 451.781 64.9072 451.664C65.2119 451.547 65.4434 451.386 65.6016 451.181C65.7598 450.976 65.8389 450.741 65.8389 450.478ZM71.2178 445.38V453H69.583V443.49H71.1299L71.2178 445.38ZM70.8838 447.885L70.1279 447.858C70.1338 447.208 70.2188 446.607 70.3828 446.057C70.5469 445.5 70.79 445.017 71.1123 444.606C71.4346 444.196 71.8359 443.88 72.3164 443.657C72.7969 443.429 73.3535 443.314 73.9863 443.314C74.4316 443.314 74.8418 443.379 75.2168 443.508C75.5918 443.631 75.917 443.827 76.1924 444.097C76.4678 444.366 76.6816 444.712 76.834 445.134C76.9863 445.556 77.0625 446.065 77.0625 446.663V453H75.4365V446.742C75.4365 446.244 75.3516 445.846 75.1816 445.547C75.0176 445.248 74.7832 445.031 74.4785 444.896C74.1738 444.756 73.8164 444.686 73.4062 444.686C72.9258 444.686 72.5244 444.771 72.2021 444.94C71.8799 445.11 71.6221 445.345 71.4287 445.644C71.2354 445.942 71.0947 446.285 71.0068 446.672C70.9248 447.053 70.8838 447.457 70.8838 447.885ZM77.0449 446.988L75.9551 447.322C75.9609 446.801 76.0459 446.3 76.21 445.819C76.3799 445.339 76.623 444.911 76.9395 444.536C77.2617 444.161 77.6572 443.865 78.126 443.648C78.5947 443.426 79.1309 443.314 79.7344 443.314C80.2441 443.314 80.6953 443.382 81.0879 443.517C81.4863 443.651 81.8203 443.859 82.0898 444.141C82.3652 444.416 82.5732 444.771 82.7139 445.204C82.8545 445.638 82.9248 446.153 82.9248 446.751V453H81.29V446.733C81.29 446.2 81.2051 445.787 81.0352 445.494C80.8711 445.195 80.6367 444.987 80.332 444.87C80.0332 444.747 79.6758 444.686 79.2598 444.686C78.9023 444.686 78.5859 444.747 78.3105 444.87C78.0352 444.993 77.8037 445.163 77.6162 445.38C77.4287 445.591 77.2852 445.834 77.1855 446.109C77.0918 446.385 77.0449 446.678 77.0449 446.988ZM87.1523 443.49V453H85.5176V443.49H87.1523ZM85.3945 440.968C85.3945 440.704 85.4736 440.481 85.6318 440.3C85.7959 440.118 86.0361 440.027 86.3525 440.027C86.6631 440.027 86.9004 440.118 87.0645 440.3C87.2344 440.481 87.3193 440.704 87.3193 440.968C87.3193 441.22 87.2344 441.437 87.0645 441.618C86.9004 441.794 86.6631 441.882 86.3525 441.882C86.0361 441.882 85.7959 441.794 85.6318 441.618C85.4736 441.437 85.3945 441.22 85.3945 440.968ZM91.5293 439.5V453H89.8945V439.5H91.5293ZM98.0859 453.176C97.4238 453.176 96.8232 453.064 96.2842 452.842C95.751 452.613 95.291 452.294 94.9043 451.884C94.5234 451.474 94.2305 450.987 94.0254 450.425C93.8203 449.862 93.7178 449.247 93.7178 448.579V448.21C93.7178 447.437 93.832 446.748 94.0605 446.145C94.2891 445.535 94.5996 445.02 94.9922 444.598C95.3848 444.176 95.8301 443.856 96.3281 443.64C96.8262 443.423 97.3418 443.314 97.875 443.314C98.5547 443.314 99.1406 443.432 99.6328 443.666C100.131 443.9 100.538 444.229 100.854 444.65C101.171 445.066 101.405 445.559 101.558 446.127C101.71 446.689 101.786 447.305 101.786 447.973V448.702H94.6846V447.375H100.16V447.252C100.137 446.83 100.049 446.42 99.8965 446.021C99.75 445.623 99.5156 445.295 99.1934 445.037C98.8711 444.779 98.4316 444.65 97.875 444.65C97.5059 444.65 97.166 444.729 96.8555 444.888C96.5449 445.04 96.2783 445.269 96.0557 445.573C95.833 445.878 95.6602 446.25 95.5371 446.689C95.4141 447.129 95.3525 447.636 95.3525 448.21V448.579C95.3525 449.03 95.4141 449.455 95.5371 449.854C95.666 450.246 95.8506 450.592 96.0908 450.891C96.3369 451.189 96.6328 451.424 96.9785 451.594C97.3301 451.764 97.7285 451.849 98.1738 451.849C98.748 451.849 99.2344 451.731 99.6328 451.497C100.031 451.263 100.38 450.949 100.679 450.557L101.663 451.339C101.458 451.649 101.197 451.945 100.881 452.227C100.564 452.508 100.175 452.736 99.7119 452.912C99.2549 453.088 98.7129 453.176 98.0859 453.176ZM110.558 451.312L113.001 443.49H114.073L113.862 445.046L111.375 453H110.329L110.558 451.312ZM108.914 443.49L110.997 451.4L111.146 453H110.048L107.288 443.49H108.914ZM116.411 451.339L118.397 443.49H120.015L117.255 453H116.165L116.411 451.339ZM114.311 443.49L116.701 451.181L116.974 453H115.937L113.379 445.028L113.168 443.49H114.311ZM123.451 443.49V453H121.816V443.49H123.451ZM121.693 440.968C121.693 440.704 121.772 440.481 121.931 440.3C122.095 440.118 122.335 440.027 122.651 440.027C122.962 440.027 123.199 440.118 123.363 440.3C123.533 440.481 123.618 440.704 123.618 440.968C123.618 441.22 123.533 441.437 123.363 441.618C123.199 441.794 122.962 441.882 122.651 441.882C122.335 441.882 122.095 441.794 121.931 441.618C121.772 441.437 121.693 441.22 121.693 440.968ZM130.043 443.49V444.738H124.901V443.49H130.043ZM126.642 441.179H128.268V450.645C128.268 450.967 128.317 451.21 128.417 451.374C128.517 451.538 128.646 451.646 128.804 451.699C128.962 451.752 129.132 451.778 129.313 451.778C129.448 451.778 129.589 451.767 129.735 451.743C129.888 451.714 130.002 451.69 130.078 451.673L130.087 453C129.958 453.041 129.788 453.079 129.577 453.114C129.372 453.155 129.123 453.176 128.83 453.176C128.432 453.176 128.065 453.097 127.731 452.938C127.397 452.78 127.131 452.517 126.932 452.147C126.738 451.772 126.642 451.269 126.642 450.636V441.179ZM133.576 439.5V453H131.95V439.5H133.576ZM133.189 447.885L132.513 447.858C132.519 447.208 132.615 446.607 132.803 446.057C132.99 445.5 133.254 445.017 133.594 444.606C133.934 444.196 134.338 443.88 134.807 443.657C135.281 443.429 135.806 443.314 136.38 443.314C136.849 443.314 137.271 443.379 137.646 443.508C138.021 443.631 138.34 443.83 138.604 444.105C138.873 444.381 139.078 444.738 139.219 445.178C139.359 445.611 139.43 446.142 139.43 446.769V453H137.795V446.751C137.795 446.253 137.722 445.854 137.575 445.556C137.429 445.251 137.215 445.031 136.934 444.896C136.652 444.756 136.307 444.686 135.896 444.686C135.492 444.686 135.123 444.771 134.789 444.94C134.461 445.11 134.177 445.345 133.937 445.644C133.702 445.942 133.518 446.285 133.383 446.672C133.254 447.053 133.189 447.457 133.189 447.885ZM152.147 450.803V443.49H153.782V453H152.227L152.147 450.803ZM152.455 448.799L153.132 448.781C153.132 449.414 153.064 450 152.93 450.539C152.801 451.072 152.59 451.535 152.297 451.928C152.004 452.32 151.62 452.628 151.146 452.851C150.671 453.067 150.094 453.176 149.414 453.176C148.951 453.176 148.526 453.108 148.14 452.974C147.759 452.839 147.431 452.631 147.155 452.35C146.88 452.068 146.666 451.702 146.514 451.251C146.367 450.8 146.294 450.258 146.294 449.625V443.49H147.92V449.643C147.92 450.07 147.967 450.425 148.061 450.706C148.16 450.981 148.292 451.201 148.456 451.365C148.626 451.523 148.813 451.635 149.019 451.699C149.229 451.764 149.446 451.796 149.669 451.796C150.36 451.796 150.908 451.664 151.312 451.4C151.717 451.131 152.007 450.771 152.183 450.319C152.364 449.862 152.455 449.355 152.455 448.799ZM157.887 445.521V453H156.261V443.49H157.799L157.887 445.521ZM157.5 447.885L156.823 447.858C156.829 447.208 156.926 446.607 157.113 446.057C157.301 445.5 157.564 445.017 157.904 444.606C158.244 444.196 158.648 443.88 159.117 443.657C159.592 443.429 160.116 443.314 160.69 443.314C161.159 443.314 161.581 443.379 161.956 443.508C162.331 443.631 162.65 443.83 162.914 444.105C163.184 444.381 163.389 444.738 163.529 445.178C163.67 445.611 163.74 446.142 163.74 446.769V453H162.105V446.751C162.105 446.253 162.032 445.854 161.886 445.556C161.739 445.251 161.525 445.031 161.244 444.896C160.963 444.756 160.617 444.686 160.207 444.686C159.803 444.686 159.434 444.771 159.1 444.94C158.771 445.11 158.487 445.345 158.247 445.644C158.013 445.942 157.828 446.285 157.693 446.672C157.564 447.053 157.5 447.457 157.5 447.885ZM167.977 443.49V453H166.342V443.49H167.977ZM166.219 440.968C166.219 440.704 166.298 440.481 166.456 440.3C166.62 440.118 166.86 440.027 167.177 440.027C167.487 440.027 167.725 440.118 167.889 440.3C168.059 440.481 168.144 440.704 168.144 440.968C168.144 441.22 168.059 441.437 167.889 441.618C167.725 441.794 167.487 441.882 167.177 441.882C166.86 441.882 166.62 441.794 166.456 441.618C166.298 441.437 166.219 441.22 166.219 440.968ZM176.572 456.656V445.318L176.713 443.49H178.207V456.656H176.572ZM170.183 448.351V448.166C170.183 447.439 170.268 446.78 170.438 446.188C170.607 445.591 170.856 445.078 171.185 444.65C171.513 444.223 171.908 443.895 172.371 443.666C172.84 443.432 173.373 443.314 173.971 443.314C174.568 443.314 175.093 443.42 175.544 443.631C176.001 443.836 176.388 444.138 176.704 444.536C177.026 444.929 177.281 445.403 177.469 445.96C177.656 446.517 177.785 447.146 177.855 447.85V448.658C177.791 449.355 177.665 449.982 177.478 450.539C177.29 451.096 177.035 451.57 176.713 451.963C176.396 452.355 176.007 452.657 175.544 452.868C175.087 453.073 174.557 453.176 173.953 453.176C173.367 453.176 172.84 453.056 172.371 452.815C171.908 452.575 171.513 452.238 171.185 451.805C170.862 451.371 170.613 450.861 170.438 450.275C170.268 449.684 170.183 449.042 170.183 448.351ZM171.817 448.166V448.351C171.817 448.825 171.867 449.273 171.967 449.695C172.066 450.111 172.219 450.48 172.424 450.803C172.635 451.125 172.898 451.38 173.215 451.567C173.537 451.749 173.918 451.84 174.357 451.84C174.896 451.84 175.345 451.723 175.702 451.488C176.065 451.254 176.355 450.946 176.572 450.565C176.789 450.179 176.956 449.766 177.073 449.326V447.208C177.009 446.886 176.906 446.572 176.766 446.268C176.631 445.963 176.455 445.69 176.238 445.45C176.021 445.204 175.758 445.011 175.447 444.87C175.143 444.724 174.785 444.65 174.375 444.65C173.93 444.65 173.546 444.744 173.224 444.932C172.901 445.119 172.635 445.377 172.424 445.705C172.219 446.027 172.066 446.399 171.967 446.821C171.867 447.243 171.817 447.691 171.817 448.166ZM186.636 450.803V443.49H188.271V453H186.715L186.636 450.803ZM186.943 448.799L187.62 448.781C187.62 449.414 187.553 450 187.418 450.539C187.289 451.072 187.078 451.535 186.785 451.928C186.492 452.32 186.108 452.628 185.634 452.851C185.159 453.067 184.582 453.176 183.902 453.176C183.439 453.176 183.015 453.108 182.628 452.974C182.247 452.839 181.919 452.631 181.644 452.35C181.368 452.068 181.154 451.702 181.002 451.251C180.855 450.8 180.782 450.258 180.782 449.625V443.49H182.408V449.643C182.408 450.07 182.455 450.425 182.549 450.706C182.648 450.981 182.78 451.201 182.944 451.365C183.114 451.523 183.302 451.635 183.507 451.699C183.718 451.764 183.935 451.796 184.157 451.796C184.849 451.796 185.396 451.664 185.801 451.4C186.205 451.131 186.495 450.771 186.671 450.319C186.853 449.862 186.943 449.355 186.943 448.799ZM194.695 453.176C194.033 453.176 193.433 453.064 192.894 452.842C192.36 452.613 191.9 452.294 191.514 451.884C191.133 451.474 190.84 450.987 190.635 450.425C190.43 449.862 190.327 449.247 190.327 448.579V448.21C190.327 447.437 190.441 446.748 190.67 446.145C190.898 445.535 191.209 445.02 191.602 444.598C191.994 444.176 192.439 443.856 192.938 443.64C193.436 443.423 193.951 443.314 194.484 443.314C195.164 443.314 195.75 443.432 196.242 443.666C196.74 443.9 197.147 444.229 197.464 444.65C197.78 445.066 198.015 445.559 198.167 446.127C198.319 446.689 198.396 447.305 198.396 447.973V448.702H191.294V447.375H196.77V447.252C196.746 446.83 196.658 446.42 196.506 446.021C196.359 445.623 196.125 445.295 195.803 445.037C195.48 444.779 195.041 444.65 194.484 444.65C194.115 444.65 193.775 444.729 193.465 444.888C193.154 445.04 192.888 445.269 192.665 445.573C192.442 445.878 192.27 446.25 192.146 446.689C192.023 447.129 191.962 447.636 191.962 448.21V448.579C191.962 449.03 192.023 449.455 192.146 449.854C192.275 450.246 192.46 450.592 192.7 450.891C192.946 451.189 193.242 451.424 193.588 451.594C193.939 451.764 194.338 451.849 194.783 451.849C195.357 451.849 195.844 451.731 196.242 451.497C196.641 451.263 196.989 450.949 197.288 450.557L198.272 451.339C198.067 451.649 197.807 451.945 197.49 452.227C197.174 452.508 196.784 452.736 196.321 452.912C195.864 453.088 195.322 453.176 194.695 453.176ZM210.753 451.154V439.5H212.388V453H210.894L210.753 451.154ZM204.354 448.351V448.166C204.354 447.439 204.442 446.78 204.618 446.188C204.8 445.591 205.055 445.078 205.383 444.65C205.717 444.223 206.112 443.895 206.569 443.666C207.032 443.432 207.548 443.314 208.116 443.314C208.714 443.314 209.235 443.42 209.681 443.631C210.132 443.836 210.513 444.138 210.823 444.536C211.14 444.929 211.389 445.403 211.57 445.96C211.752 446.517 211.878 447.146 211.948 447.85V448.658C211.884 449.355 211.758 449.982 211.57 450.539C211.389 451.096 211.14 451.57 210.823 451.963C210.513 452.355 210.132 452.657 209.681 452.868C209.229 453.073 208.702 453.176 208.099 453.176C207.542 453.176 207.032 453.056 206.569 452.815C206.112 452.575 205.717 452.238 205.383 451.805C205.055 451.371 204.8 450.861 204.618 450.275C204.442 449.684 204.354 449.042 204.354 448.351ZM205.989 448.166V448.351C205.989 448.825 206.036 449.271 206.13 449.687C206.229 450.103 206.382 450.469 206.587 450.785C206.792 451.102 207.053 451.351 207.369 451.532C207.686 451.708 208.063 451.796 208.503 451.796C209.042 451.796 209.484 451.682 209.83 451.453C210.182 451.225 210.463 450.923 210.674 450.548C210.885 450.173 211.049 449.766 211.166 449.326V447.208C211.096 446.886 210.993 446.575 210.858 446.276C210.729 445.972 210.56 445.702 210.349 445.468C210.144 445.228 209.889 445.037 209.584 444.896C209.285 444.756 208.931 444.686 208.521 444.686C208.075 444.686 207.691 444.779 207.369 444.967C207.053 445.148 206.792 445.4 206.587 445.723C206.382 446.039 206.229 446.408 206.13 446.83C206.036 447.246 205.989 447.691 205.989 448.166ZM218.865 453.176C218.203 453.176 217.603 453.064 217.063 452.842C216.53 452.613 216.07 452.294 215.684 451.884C215.303 451.474 215.01 450.987 214.805 450.425C214.6 449.862 214.497 449.247 214.497 448.579V448.21C214.497 447.437 214.611 446.748 214.84 446.145C215.068 445.535 215.379 445.02 215.771 444.598C216.164 444.176 216.609 443.856 217.107 443.64C217.605 443.423 218.121 443.314 218.654 443.314C219.334 443.314 219.92 443.432 220.412 443.666C220.91 443.9 221.317 444.229 221.634 444.65C221.95 445.066 222.185 445.559 222.337 446.127C222.489 446.689 222.565 447.305 222.565 447.973V448.702H215.464V447.375H220.939V447.252C220.916 446.83 220.828 446.42 220.676 446.021C220.529 445.623 220.295 445.295 219.973 445.037C219.65 444.779 219.211 444.65 218.654 444.65C218.285 444.65 217.945 444.729 217.635 444.888C217.324 445.04 217.058 445.269 216.835 445.573C216.612 445.878 216.439 446.25 216.316 446.689C216.193 447.129 216.132 447.636 216.132 448.21V448.579C216.132 449.03 216.193 449.455 216.316 449.854C216.445 450.246 216.63 450.592 216.87 450.891C217.116 451.189 217.412 451.424 217.758 451.594C218.109 451.764 218.508 451.849 218.953 451.849C219.527 451.849 220.014 451.731 220.412 451.497C220.811 451.263 221.159 450.949 221.458 450.557L222.442 451.339C222.237 451.649 221.977 451.945 221.66 452.227C221.344 452.508 220.954 452.736 220.491 452.912C220.034 453.088 219.492 453.176 218.865 453.176ZM230.001 450.478C230.001 450.243 229.948 450.026 229.843 449.827C229.743 449.622 229.535 449.438 229.219 449.273C228.908 449.104 228.439 448.957 227.812 448.834C227.285 448.723 226.808 448.591 226.38 448.438C225.958 448.286 225.598 448.102 225.299 447.885C225.006 447.668 224.78 447.413 224.622 447.12C224.464 446.827 224.385 446.484 224.385 446.092C224.385 445.717 224.467 445.362 224.631 445.028C224.801 444.694 225.038 444.398 225.343 444.141C225.653 443.883 226.025 443.681 226.459 443.534C226.893 443.388 227.376 443.314 227.909 443.314C228.671 443.314 229.321 443.449 229.86 443.719C230.399 443.988 230.812 444.349 231.1 444.8C231.387 445.245 231.53 445.74 231.53 446.285H229.904C229.904 446.021 229.825 445.767 229.667 445.521C229.515 445.269 229.289 445.061 228.99 444.896C228.697 444.732 228.337 444.65 227.909 444.65C227.458 444.65 227.092 444.721 226.811 444.861C226.535 444.996 226.333 445.169 226.204 445.38C226.081 445.591 226.02 445.813 226.02 446.048C226.02 446.224 226.049 446.382 226.107 446.522C226.172 446.657 226.283 446.783 226.441 446.9C226.6 447.012 226.822 447.117 227.109 447.217C227.396 447.316 227.763 447.416 228.208 447.516C228.987 447.691 229.629 447.902 230.133 448.148C230.637 448.395 231.012 448.696 231.258 449.054C231.504 449.411 231.627 449.845 231.627 450.354C231.627 450.771 231.539 451.151 231.363 451.497C231.193 451.843 230.944 452.142 230.616 452.394C230.294 452.64 229.907 452.833 229.456 452.974C229.011 453.108 228.51 453.176 227.953 453.176C227.115 453.176 226.406 453.026 225.826 452.728C225.246 452.429 224.807 452.042 224.508 451.567C224.209 451.093 224.06 450.592 224.06 450.064H225.694C225.718 450.51 225.847 450.864 226.081 451.128C226.315 451.386 226.603 451.57 226.942 451.682C227.282 451.787 227.619 451.84 227.953 451.84C228.398 451.84 228.771 451.781 229.069 451.664C229.374 451.547 229.605 451.386 229.764 451.181C229.922 450.976 230.001 450.741 230.001 450.478ZM235.529 443.49V453H233.895V443.49H235.529ZM233.771 440.968C233.771 440.704 233.851 440.481 234.009 440.3C234.173 440.118 234.413 440.027 234.729 440.027C235.04 440.027 235.277 440.118 235.441 440.3C235.611 440.481 235.696 440.704 235.696 440.968C235.696 441.22 235.611 441.437 235.441 441.618C235.277 441.794 235.04 441.882 234.729 441.882C234.413 441.882 234.173 441.794 234.009 441.618C233.851 441.437 233.771 441.22 233.771 440.968ZM244.301 443.49H245.777V452.798C245.777 453.636 245.607 454.351 245.268 454.942C244.928 455.534 244.453 455.982 243.844 456.287C243.24 456.598 242.543 456.753 241.752 456.753C241.424 456.753 241.037 456.7 240.592 456.595C240.152 456.495 239.719 456.322 239.291 456.076C238.869 455.836 238.515 455.511 238.228 455.101L239.08 454.134C239.479 454.614 239.895 454.948 240.328 455.136C240.768 455.323 241.201 455.417 241.629 455.417C242.145 455.417 242.59 455.32 242.965 455.127C243.34 454.934 243.63 454.646 243.835 454.266C244.046 453.891 244.151 453.428 244.151 452.877V445.582L244.301 443.49ZM237.753 448.351V448.166C237.753 447.439 237.838 446.78 238.008 446.188C238.184 445.591 238.433 445.078 238.755 444.65C239.083 444.223 239.479 443.895 239.941 443.666C240.404 443.432 240.926 443.314 241.506 443.314C242.104 443.314 242.625 443.42 243.07 443.631C243.521 443.836 243.902 444.138 244.213 444.536C244.529 444.929 244.778 445.403 244.96 445.96C245.142 446.517 245.268 447.146 245.338 447.85V448.658C245.273 449.355 245.147 449.982 244.96 450.539C244.778 451.096 244.529 451.57 244.213 451.963C243.902 452.355 243.521 452.657 243.07 452.868C242.619 453.073 242.092 453.176 241.488 453.176C240.92 453.176 240.404 453.056 239.941 452.815C239.484 452.575 239.092 452.238 238.764 451.805C238.436 451.371 238.184 450.861 238.008 450.275C237.838 449.684 237.753 449.042 237.753 448.351ZM239.379 448.166V448.351C239.379 448.825 239.426 449.271 239.52 449.687C239.619 450.103 239.769 450.469 239.968 450.785C240.173 451.102 240.434 451.351 240.75 451.532C241.066 451.708 241.444 451.796 241.884 451.796C242.423 451.796 242.868 451.682 243.22 451.453C243.571 451.225 243.85 450.923 244.055 450.548C244.266 450.173 244.43 449.766 244.547 449.326V447.208C244.482 446.886 244.383 446.575 244.248 446.276C244.119 445.972 243.949 445.702 243.738 445.468C243.533 445.228 243.278 445.037 242.974 444.896C242.669 444.756 242.312 444.686 241.901 444.686C241.456 444.686 241.072 444.779 240.75 444.967C240.434 445.148 240.173 445.4 239.968 445.723C239.769 446.039 239.619 446.408 239.52 446.83C239.426 447.246 239.379 447.691 239.379 448.166ZM249.873 445.521V453H248.247V443.49H249.785L249.873 445.521ZM249.486 447.885L248.81 447.858C248.815 447.208 248.912 446.607 249.1 446.057C249.287 445.5 249.551 445.017 249.891 444.606C250.23 444.196 250.635 443.88 251.104 443.657C251.578 443.429 252.103 443.314 252.677 443.314C253.146 443.314 253.567 443.379 253.942 443.508C254.317 443.631 254.637 443.83 254.9 444.105C255.17 444.381 255.375 444.738 255.516 445.178C255.656 445.611 255.727 446.142 255.727 446.769V453H254.092V446.751C254.092 446.253 254.019 445.854 253.872 445.556C253.726 445.251 253.512 445.031 253.23 444.896C252.949 444.756 252.604 444.686 252.193 444.686C251.789 444.686 251.42 444.771 251.086 444.94C250.758 445.11 250.474 445.345 250.233 445.644C249.999 445.942 249.814 446.285 249.68 446.672C249.551 447.053 249.486 447.457 249.486 447.885ZM263.733 450.478C263.733 450.243 263.681 450.026 263.575 449.827C263.476 449.622 263.268 449.438 262.951 449.273C262.641 449.104 262.172 448.957 261.545 448.834C261.018 448.723 260.54 448.591 260.112 448.438C259.69 448.286 259.33 448.102 259.031 447.885C258.738 447.668 258.513 447.413 258.354 447.12C258.196 446.827 258.117 446.484 258.117 446.092C258.117 445.717 258.199 445.362 258.363 445.028C258.533 444.694 258.771 444.398 259.075 444.141C259.386 443.883 259.758 443.681 260.191 443.534C260.625 443.388 261.108 443.314 261.642 443.314C262.403 443.314 263.054 443.449 263.593 443.719C264.132 443.988 264.545 444.349 264.832 444.8C265.119 445.245 265.263 445.74 265.263 446.285H263.637C263.637 446.021 263.558 445.767 263.399 445.521C263.247 445.269 263.021 445.061 262.723 444.896C262.43 444.732 262.069 444.65 261.642 444.65C261.19 444.65 260.824 444.721 260.543 444.861C260.268 444.996 260.065 445.169 259.937 445.38C259.813 445.591 259.752 445.813 259.752 446.048C259.752 446.224 259.781 446.382 259.84 446.522C259.904 446.657 260.016 446.783 260.174 446.9C260.332 447.012 260.555 447.117 260.842 447.217C261.129 447.316 261.495 447.416 261.94 447.516C262.72 447.691 263.361 447.902 263.865 448.148C264.369 448.395 264.744 448.696 264.99 449.054C265.236 449.411 265.359 449.845 265.359 450.354C265.359 450.771 265.271 451.151 265.096 451.497C264.926 451.843 264.677 452.142 264.349 452.394C264.026 452.64 263.64 452.833 263.188 452.974C262.743 453.108 262.242 453.176 261.686 453.176C260.848 453.176 260.139 453.026 259.559 452.728C258.979 452.429 258.539 452.042 258.24 451.567C257.941 451.093 257.792 450.592 257.792 450.064H259.427C259.45 450.51 259.579 450.864 259.813 451.128C260.048 451.386 260.335 451.57 260.675 451.682C261.015 451.787 261.352 451.84 261.686 451.84C262.131 451.84 262.503 451.781 262.802 451.664C263.106 451.547 263.338 451.386 263.496 451.181C263.654 450.976 263.733 450.741 263.733 450.478ZM277.567 451.374V446.479C277.567 446.104 277.491 445.778 277.339 445.503C277.192 445.222 276.97 445.005 276.671 444.853C276.372 444.7 276.003 444.624 275.563 444.624C275.153 444.624 274.793 444.694 274.482 444.835C274.178 444.976 273.938 445.16 273.762 445.389C273.592 445.617 273.507 445.863 273.507 446.127H271.881C271.881 445.787 271.969 445.45 272.145 445.116C272.32 444.782 272.572 444.48 272.9 444.211C273.234 443.936 273.633 443.719 274.096 443.561C274.564 443.396 275.086 443.314 275.66 443.314C276.352 443.314 276.961 443.432 277.488 443.666C278.021 443.9 278.438 444.255 278.736 444.729C279.041 445.198 279.193 445.787 279.193 446.496V450.926C279.193 451.242 279.22 451.579 279.272 451.937C279.331 452.294 279.416 452.602 279.527 452.859V453H277.831C277.749 452.812 277.685 452.563 277.638 452.253C277.591 451.937 277.567 451.644 277.567 451.374ZM277.849 447.234L277.866 448.377H276.223C275.76 448.377 275.347 448.415 274.983 448.491C274.62 448.562 274.315 448.67 274.069 448.816C273.823 448.963 273.636 449.147 273.507 449.37C273.378 449.587 273.313 449.842 273.313 450.135C273.313 450.434 273.381 450.706 273.516 450.952C273.65 451.198 273.853 451.395 274.122 451.541C274.397 451.682 274.734 451.752 275.133 451.752C275.631 451.752 276.07 451.646 276.451 451.436C276.832 451.225 277.134 450.967 277.356 450.662C277.585 450.357 277.708 450.062 277.726 449.774L278.42 450.557C278.379 450.803 278.268 451.075 278.086 451.374C277.904 451.673 277.661 451.96 277.356 452.235C277.058 452.505 276.7 452.73 276.284 452.912C275.874 453.088 275.411 453.176 274.896 453.176C274.251 453.176 273.686 453.05 273.199 452.798C272.719 452.546 272.344 452.209 272.074 451.787C271.811 451.359 271.679 450.882 271.679 450.354C271.679 449.845 271.778 449.396 271.978 449.01C272.177 448.617 272.464 448.292 272.839 448.034C273.214 447.771 273.665 447.571 274.192 447.437C274.72 447.302 275.309 447.234 275.959 447.234H277.849ZM283.377 445.521V453H281.751V443.49H283.289L283.377 445.521ZM282.99 447.885L282.313 447.858C282.319 447.208 282.416 446.607 282.604 446.057C282.791 445.5 283.055 445.017 283.395 444.606C283.734 444.196 284.139 443.88 284.607 443.657C285.082 443.429 285.606 443.314 286.181 443.314C286.649 443.314 287.071 443.379 287.446 443.508C287.821 443.631 288.141 443.83 288.404 444.105C288.674 444.381 288.879 444.738 289.02 445.178C289.16 445.611 289.23 446.142 289.23 446.769V453H287.596V446.751C287.596 446.253 287.522 445.854 287.376 445.556C287.229 445.251 287.016 445.031 286.734 444.896C286.453 444.756 286.107 444.686 285.697 444.686C285.293 444.686 284.924 444.771 284.59 444.94C284.262 445.11 283.978 445.345 283.737 445.644C283.503 445.942 283.318 446.285 283.184 446.672C283.055 447.053 282.99 447.457 282.99 447.885ZM297.694 451.154V439.5H299.329V453H297.835L297.694 451.154ZM291.296 448.351V448.166C291.296 447.439 291.384 446.78 291.56 446.188C291.741 445.591 291.996 445.078 292.324 444.65C292.658 444.223 293.054 443.895 293.511 443.666C293.974 443.432 294.489 443.314 295.058 443.314C295.655 443.314 296.177 443.42 296.622 443.631C297.073 443.836 297.454 444.138 297.765 444.536C298.081 444.929 298.33 445.403 298.512 445.96C298.693 446.517 298.819 447.146 298.89 447.85V448.658C298.825 449.355 298.699 449.982 298.512 450.539C298.33 451.096 298.081 451.57 297.765 451.963C297.454 452.355 297.073 452.657 296.622 452.868C296.171 453.073 295.644 453.176 295.04 453.176C294.483 453.176 293.974 453.056 293.511 452.815C293.054 452.575 292.658 452.238 292.324 451.805C291.996 451.371 291.741 450.861 291.56 450.275C291.384 449.684 291.296 449.042 291.296 448.351ZM292.931 448.166V448.351C292.931 448.825 292.978 449.271 293.071 449.687C293.171 450.103 293.323 450.469 293.528 450.785C293.733 451.102 293.994 451.351 294.311 451.532C294.627 451.708 295.005 451.796 295.444 451.796C295.983 451.796 296.426 451.682 296.771 451.453C297.123 451.225 297.404 450.923 297.615 450.548C297.826 450.173 297.99 449.766 298.107 449.326V447.208C298.037 446.886 297.935 446.575 297.8 446.276C297.671 445.972 297.501 445.702 297.29 445.468C297.085 445.228 296.83 445.037 296.525 444.896C296.227 444.756 295.872 444.686 295.462 444.686C295.017 444.686 294.633 444.779 294.311 444.967C293.994 445.148 293.733 445.4 293.528 445.723C293.323 446.039 293.171 446.408 293.071 446.83C292.978 447.246 292.931 447.691 292.931 448.166ZM308.751 453H307.125V442.488C307.125 441.803 307.248 441.226 307.494 440.757C307.746 440.282 308.106 439.925 308.575 439.685C309.044 439.438 309.601 439.315 310.245 439.315C310.433 439.315 310.62 439.327 310.808 439.351C311.001 439.374 311.188 439.409 311.37 439.456L311.282 440.783C311.159 440.754 311.019 440.733 310.86 440.722C310.708 440.71 310.556 440.704 310.403 440.704C310.058 440.704 309.759 440.774 309.507 440.915C309.261 441.05 309.073 441.249 308.944 441.513C308.815 441.776 308.751 442.102 308.751 442.488V453ZM310.772 443.49V444.738H305.622V443.49H310.772ZM318.401 450.803V443.49H320.036V453H318.48L318.401 450.803ZM318.709 448.799L319.386 448.781C319.386 449.414 319.318 450 319.184 450.539C319.055 451.072 318.844 451.535 318.551 451.928C318.258 452.32 317.874 452.628 317.399 452.851C316.925 453.067 316.348 453.176 315.668 453.176C315.205 453.176 314.78 453.108 314.394 452.974C314.013 452.839 313.685 452.631 313.409 452.35C313.134 452.068 312.92 451.702 312.768 451.251C312.621 450.8 312.548 450.258 312.548 449.625V443.49H314.174V449.643C314.174 450.07 314.221 450.425 314.314 450.706C314.414 450.981 314.546 451.201 314.71 451.365C314.88 451.523 315.067 451.635 315.272 451.699C315.483 451.764 315.7 451.796 315.923 451.796C316.614 451.796 317.162 451.664 317.566 451.4C317.971 451.131 318.261 450.771 318.437 450.319C318.618 449.862 318.709 449.355 318.709 448.799ZM324.141 445.521V453H322.515V443.49H324.053L324.141 445.521ZM323.754 447.885L323.077 447.858C323.083 447.208 323.18 446.607 323.367 446.057C323.555 445.5 323.818 445.017 324.158 444.606C324.498 444.196 324.902 443.88 325.371 443.657C325.846 443.429 326.37 443.314 326.944 443.314C327.413 443.314 327.835 443.379 328.21 443.508C328.585 443.631 328.904 443.83 329.168 444.105C329.438 444.381 329.643 444.738 329.783 445.178C329.924 445.611 329.994 446.142 329.994 446.769V453H328.359V446.751C328.359 446.253 328.286 445.854 328.14 445.556C327.993 445.251 327.779 445.031 327.498 444.896C327.217 444.756 326.871 444.686 326.461 444.686C326.057 444.686 325.688 444.771 325.354 444.94C325.025 445.11 324.741 445.345 324.501 445.644C324.267 445.942 324.082 446.285 323.947 446.672C323.818 447.053 323.754 447.457 323.754 447.885ZM338.555 445.318V456.656H336.92V443.49H338.414L338.555 445.318ZM344.962 448.166V448.351C344.962 449.042 344.88 449.684 344.716 450.275C344.552 450.861 344.312 451.371 343.995 451.805C343.685 452.238 343.301 452.575 342.844 452.815C342.387 453.056 341.862 453.176 341.271 453.176C340.667 453.176 340.134 453.076 339.671 452.877C339.208 452.678 338.815 452.388 338.493 452.007C338.171 451.626 337.913 451.169 337.72 450.636C337.532 450.103 337.403 449.502 337.333 448.834V447.85C337.403 447.146 337.535 446.517 337.729 445.96C337.922 445.403 338.177 444.929 338.493 444.536C338.815 444.138 339.205 443.836 339.662 443.631C340.119 443.42 340.646 443.314 341.244 443.314C341.842 443.314 342.372 443.432 342.835 443.666C343.298 443.895 343.688 444.223 344.004 444.65C344.32 445.078 344.558 445.591 344.716 446.188C344.88 446.78 344.962 447.439 344.962 448.166ZM343.327 448.351V448.166C343.327 447.691 343.277 447.246 343.178 446.83C343.078 446.408 342.923 446.039 342.712 445.723C342.507 445.4 342.243 445.148 341.921 444.967C341.599 444.779 341.215 444.686 340.77 444.686C340.359 444.686 340.002 444.756 339.697 444.896C339.398 445.037 339.144 445.228 338.933 445.468C338.722 445.702 338.549 445.972 338.414 446.276C338.285 446.575 338.188 446.886 338.124 447.208V449.484C338.241 449.895 338.405 450.281 338.616 450.645C338.827 451.002 339.108 451.292 339.46 451.515C339.812 451.731 340.254 451.84 340.787 451.84C341.227 451.84 341.604 451.749 341.921 451.567C342.243 451.38 342.507 451.125 342.712 450.803C342.923 450.48 343.078 450.111 343.178 449.695C343.277 449.273 343.327 448.825 343.327 448.351ZM352.644 451.374V446.479C352.644 446.104 352.567 445.778 352.415 445.503C352.269 445.222 352.046 445.005 351.747 444.853C351.448 444.7 351.079 444.624 350.64 444.624C350.229 444.624 349.869 444.694 349.559 444.835C349.254 444.976 349.014 445.16 348.838 445.389C348.668 445.617 348.583 445.863 348.583 446.127H346.957C346.957 445.787 347.045 445.45 347.221 445.116C347.396 444.782 347.648 444.48 347.977 444.211C348.311 443.936 348.709 443.719 349.172 443.561C349.641 443.396 350.162 443.314 350.736 443.314C351.428 443.314 352.037 443.432 352.564 443.666C353.098 443.9 353.514 444.255 353.812 444.729C354.117 445.198 354.27 445.787 354.27 446.496V450.926C354.27 451.242 354.296 451.579 354.349 451.937C354.407 452.294 354.492 452.602 354.604 452.859V453H352.907C352.825 452.812 352.761 452.563 352.714 452.253C352.667 451.937 352.644 451.644 352.644 451.374ZM352.925 447.234L352.942 448.377H351.299C350.836 448.377 350.423 448.415 350.06 448.491C349.696 448.562 349.392 448.67 349.146 448.816C348.899 448.963 348.712 449.147 348.583 449.37C348.454 449.587 348.39 449.842 348.39 450.135C348.39 450.434 348.457 450.706 348.592 450.952C348.727 451.198 348.929 451.395 349.198 451.541C349.474 451.682 349.811 451.752 350.209 451.752C350.707 451.752 351.146 451.646 351.527 451.436C351.908 451.225 352.21 450.967 352.433 450.662C352.661 450.357 352.784 450.062 352.802 449.774L353.496 450.557C353.455 450.803 353.344 451.075 353.162 451.374C352.98 451.673 352.737 451.96 352.433 452.235C352.134 452.505 351.776 452.73 351.36 452.912C350.95 453.088 350.487 453.176 349.972 453.176C349.327 453.176 348.762 453.05 348.275 452.798C347.795 452.546 347.42 452.209 347.15 451.787C346.887 451.359 346.755 450.882 346.755 450.354C346.755 449.845 346.854 449.396 347.054 449.01C347.253 448.617 347.54 448.292 347.915 448.034C348.29 447.771 348.741 447.571 349.269 447.437C349.796 447.302 350.385 447.234 351.035 447.234H352.925ZM360.633 451.84C361.02 451.84 361.377 451.761 361.705 451.603C362.033 451.444 362.303 451.228 362.514 450.952C362.725 450.671 362.845 450.352 362.874 449.994H364.421C364.392 450.557 364.201 451.081 363.85 451.567C363.504 452.048 363.05 452.438 362.487 452.736C361.925 453.029 361.307 453.176 360.633 453.176C359.918 453.176 359.294 453.05 358.761 452.798C358.233 452.546 357.794 452.2 357.442 451.761C357.097 451.321 356.836 450.817 356.66 450.249C356.49 449.675 356.405 449.068 356.405 448.43V448.061C356.405 447.422 356.49 446.818 356.66 446.25C356.836 445.676 357.097 445.169 357.442 444.729C357.794 444.29 358.233 443.944 358.761 443.692C359.294 443.44 359.918 443.314 360.633 443.314C361.377 443.314 362.027 443.467 362.584 443.771C363.141 444.07 363.577 444.48 363.894 445.002C364.216 445.518 364.392 446.104 364.421 446.76H362.874C362.845 446.367 362.733 446.013 362.54 445.696C362.353 445.38 362.095 445.128 361.767 444.94C361.444 444.747 361.066 444.65 360.633 444.65C360.135 444.65 359.716 444.75 359.376 444.949C359.042 445.143 358.775 445.406 358.576 445.74C358.383 446.068 358.242 446.435 358.154 446.839C358.072 447.237 358.031 447.645 358.031 448.061V448.43C358.031 448.846 358.072 449.256 358.154 449.66C358.236 450.064 358.374 450.431 358.567 450.759C358.767 451.087 359.033 451.351 359.367 451.55C359.707 451.743 360.129 451.84 360.633 451.84ZM367.884 439.5V453H366.249V439.5H367.884ZM373.693 443.49L369.545 447.929L367.225 450.337L367.093 448.605L368.754 446.619L371.707 443.49H373.693ZM372.208 453L368.815 448.465L369.659 447.015L374.124 453H372.208ZM380.979 451.374V446.479C380.979 446.104 380.903 445.778 380.751 445.503C380.604 445.222 380.382 445.005 380.083 444.853C379.784 444.7 379.415 444.624 378.976 444.624C378.565 444.624 378.205 444.694 377.895 444.835C377.59 444.976 377.35 445.16 377.174 445.389C377.004 445.617 376.919 445.863 376.919 446.127H375.293C375.293 445.787 375.381 445.45 375.557 445.116C375.732 444.782 375.984 444.48 376.312 444.211C376.646 443.936 377.045 443.719 377.508 443.561C377.977 443.396 378.498 443.314 379.072 443.314C379.764 443.314 380.373 443.432 380.9 443.666C381.434 443.9 381.85 444.255 382.148 444.729C382.453 445.198 382.605 445.787 382.605 446.496V450.926C382.605 451.242 382.632 451.579 382.685 451.937C382.743 452.294 382.828 452.602 382.939 452.859V453H381.243C381.161 452.812 381.097 452.563 381.05 452.253C381.003 451.937 380.979 451.644 380.979 451.374ZM381.261 447.234L381.278 448.377H379.635C379.172 448.377 378.759 448.415 378.396 448.491C378.032 448.562 377.728 448.67 377.481 448.816C377.235 448.963 377.048 449.147 376.919 449.37C376.79 449.587 376.726 449.842 376.726 450.135C376.726 450.434 376.793 450.706 376.928 450.952C377.062 451.198 377.265 451.395 377.534 451.541C377.81 451.682 378.146 451.752 378.545 451.752C379.043 451.752 379.482 451.646 379.863 451.436C380.244 451.225 380.546 450.967 380.769 450.662C380.997 450.357 381.12 450.062 381.138 449.774L381.832 450.557C381.791 450.803 381.68 451.075 381.498 451.374C381.316 451.673 381.073 451.96 380.769 452.235C380.47 452.505 380.112 452.73 379.696 452.912C379.286 453.088 378.823 453.176 378.308 453.176C377.663 453.176 377.098 453.05 376.611 452.798C376.131 452.546 375.756 452.209 375.486 451.787C375.223 451.359 375.091 450.882 375.091 450.354C375.091 449.845 375.19 449.396 375.39 449.01C375.589 448.617 375.876 448.292 376.251 448.034C376.626 447.771 377.077 447.571 377.604 447.437C378.132 447.302 378.721 447.234 379.371 447.234H381.261ZM391.324 443.49H392.801V452.798C392.801 453.636 392.631 454.351 392.291 454.942C391.951 455.534 391.477 455.982 390.867 456.287C390.264 456.598 389.566 456.753 388.775 456.753C388.447 456.753 388.061 456.7 387.615 456.595C387.176 456.495 386.742 456.322 386.314 456.076C385.893 455.836 385.538 455.511 385.251 455.101L386.104 454.134C386.502 454.614 386.918 454.948 387.352 455.136C387.791 455.323 388.225 455.417 388.652 455.417C389.168 455.417 389.613 455.32 389.988 455.127C390.363 454.934 390.653 454.646 390.858 454.266C391.069 453.891 391.175 453.428 391.175 452.877V445.582L391.324 443.49ZM384.776 448.351V448.166C384.776 447.439 384.861 446.78 385.031 446.188C385.207 445.591 385.456 445.078 385.778 444.65C386.106 444.223 386.502 443.895 386.965 443.666C387.428 443.432 387.949 443.314 388.529 443.314C389.127 443.314 389.648 443.42 390.094 443.631C390.545 443.836 390.926 444.138 391.236 444.536C391.553 444.929 391.802 445.403 391.983 445.96C392.165 446.517 392.291 447.146 392.361 447.85V448.658C392.297 449.355 392.171 449.982 391.983 450.539C391.802 451.096 391.553 451.57 391.236 451.963C390.926 452.355 390.545 452.657 390.094 452.868C389.643 453.073 389.115 453.176 388.512 453.176C387.943 453.176 387.428 453.056 386.965 452.815C386.508 452.575 386.115 452.238 385.787 451.805C385.459 451.371 385.207 450.861 385.031 450.275C384.861 449.684 384.776 449.042 384.776 448.351ZM386.402 448.166V448.351C386.402 448.825 386.449 449.271 386.543 449.687C386.643 450.103 386.792 450.469 386.991 450.785C387.196 451.102 387.457 451.351 387.773 451.532C388.09 451.708 388.468 451.796 388.907 451.796C389.446 451.796 389.892 451.682 390.243 451.453C390.595 451.225 390.873 450.923 391.078 450.548C391.289 450.173 391.453 449.766 391.57 449.326V447.208C391.506 446.886 391.406 446.575 391.271 446.276C391.143 445.972 390.973 445.702 390.762 445.468C390.557 445.228 390.302 445.037 389.997 444.896C389.692 444.756 389.335 444.686 388.925 444.686C388.479 444.686 388.096 444.779 387.773 444.967C387.457 445.148 387.196 445.4 386.991 445.723C386.792 446.039 386.643 446.408 386.543 446.83C386.449 447.246 386.402 447.691 386.402 448.166ZM397.037 443.49V453H395.402V443.49H397.037ZM395.279 440.968C395.279 440.704 395.358 440.481 395.517 440.3C395.681 440.118 395.921 440.027 396.237 440.027C396.548 440.027 396.785 440.118 396.949 440.3C397.119 440.481 397.204 440.704 397.204 440.968C397.204 441.22 397.119 441.437 396.949 441.618C396.785 441.794 396.548 441.882 396.237 441.882C395.921 441.882 395.681 441.794 395.517 441.618C395.358 441.437 395.279 441.22 395.279 440.968ZM401.273 445.521V453H399.647V443.49H401.186L401.273 445.521ZM400.887 447.885L400.21 447.858C400.216 447.208 400.312 446.607 400.5 446.057C400.688 445.5 400.951 445.017 401.291 444.606C401.631 444.196 402.035 443.88 402.504 443.657C402.979 443.429 403.503 443.314 404.077 443.314C404.546 443.314 404.968 443.379 405.343 443.508C405.718 443.631 406.037 443.83 406.301 444.105C406.57 444.381 406.775 444.738 406.916 445.178C407.057 445.611 407.127 446.142 407.127 446.769V453H405.492V446.751C405.492 446.253 405.419 445.854 405.272 445.556C405.126 445.251 404.912 445.031 404.631 444.896C404.35 444.756 404.004 444.686 403.594 444.686C403.189 444.686 402.82 444.771 402.486 444.94C402.158 445.11 401.874 445.345 401.634 445.644C401.399 445.942 401.215 446.285 401.08 446.672C400.951 447.053 400.887 447.457 400.887 447.885ZM415.758 443.49H417.234V452.798C417.234 453.636 417.064 454.351 416.725 454.942C416.385 455.534 415.91 455.982 415.301 456.287C414.697 456.598 414 456.753 413.209 456.753C412.881 456.753 412.494 456.7 412.049 456.595C411.609 456.495 411.176 456.322 410.748 456.076C410.326 455.836 409.972 455.511 409.685 455.101L410.537 454.134C410.936 454.614 411.352 454.948 411.785 455.136C412.225 455.323 412.658 455.417 413.086 455.417C413.602 455.417 414.047 455.32 414.422 455.127C414.797 454.934 415.087 454.646 415.292 454.266C415.503 453.891 415.608 453.428 415.608 452.877V445.582L415.758 443.49ZM409.21 448.351V448.166C409.21 447.439 409.295 446.78 409.465 446.188C409.641 445.591 409.89 445.078 410.212 444.65C410.54 444.223 410.936 443.895 411.398 443.666C411.861 443.432 412.383 443.314 412.963 443.314C413.561 443.314 414.082 443.42 414.527 443.631C414.979 443.836 415.359 444.138 415.67 444.536C415.986 444.929 416.235 445.403 416.417 445.96C416.599 446.517 416.725 447.146 416.795 447.85V448.658C416.73 449.355 416.604 449.982 416.417 450.539C416.235 451.096 415.986 451.57 415.67 451.963C415.359 452.355 414.979 452.657 414.527 452.868C414.076 453.073 413.549 453.176 412.945 453.176C412.377 453.176 411.861 453.056 411.398 452.815C410.941 452.575 410.549 452.238 410.221 451.805C409.893 451.371 409.641 450.861 409.465 450.275C409.295 449.684 409.21 449.042 409.21 448.351ZM410.836 448.166V448.351C410.836 448.825 410.883 449.271 410.977 449.687C411.076 450.103 411.226 450.469 411.425 450.785C411.63 451.102 411.891 451.351 412.207 451.532C412.523 451.708 412.901 451.796 413.341 451.796C413.88 451.796 414.325 451.682 414.677 451.453C415.028 451.225 415.307 450.923 415.512 450.548C415.723 450.173 415.887 449.766 416.004 449.326V447.208C415.939 446.886 415.84 446.575 415.705 446.276C415.576 445.972 415.406 445.702 415.195 445.468C414.99 445.228 414.735 445.037 414.431 444.896C414.126 444.756 413.769 444.686 413.358 444.686C412.913 444.686 412.529 444.779 412.207 444.967C411.891 445.148 411.63 445.4 411.425 445.723C411.226 446.039 411.076 446.408 410.977 446.83C410.883 447.246 410.836 447.691 410.836 448.166ZM419.73 452.139C419.73 451.863 419.815 451.632 419.985 451.444C420.161 451.251 420.413 451.154 420.741 451.154C421.069 451.154 421.318 451.251 421.488 451.444C421.664 451.632 421.752 451.863 421.752 452.139C421.752 452.408 421.664 452.637 421.488 452.824C421.318 453.012 421.069 453.105 420.741 453.105C420.413 453.105 420.161 453.012 419.985 452.824C419.815 452.637 419.73 452.408 419.73 452.139Z" fill="#333333"/>
<defs>
<filter id="filter0_f_1416_29905" x="74.3086" y="140.172" width="317.047" height="83.2188" filterUnits="userSpaceOnUse" color-interpolation-filters="sRGB">
<feFlood flood-opacity="0" result="BackgroundImageFix"/>
<feBlend mode="normal" in="SourceGraphic" in2="BackgroundImageFix" result="shape"/>
<feGaussianBlur stdDeviation="13.5" result="effect1_foregroundBlur_1416_29905"/>
</filter>
<filter id="filter1_i_1416_29905" x="97.3086" y="167.172" width="267.047" height="33.2188" filterUnits="userSpaceOnUse" color-interpolation-filters="sRGB">
<feFlood flood-opacity="0" result="BackgroundImageFix"/>
<feBlend mode="normal" in="SourceGraphic" in2="BackgroundImageFix" result="shape"/>
<feColorMatrix in="SourceAlpha" type="matrix" values="0 0 0 0 0 0 0 0 0 0 0 0 0 0 0 0 0 0 127 0" result="hardAlpha"/>
<feOffset dx="-4" dy="4"/>
<feGaussianBlur stdDeviation="3"/>
<feComposite in2="hardAlpha" operator="arithmetic" k2="-1" k3="1"/>
<feColorMatrix type="matrix" values="0 0 0 0 0 0 0 0 0 0 0 0 0 0 0 0 0 0 0.1 0"/>
<feBlend mode="normal" in2="shape" result="effect1_innerShadow_1416_29905"/>
</filter>
<linearGradient id="paint0_linear_1416_29905" x1="160.794" y1="126.356" x2="539.126" y2="278.988" gradientUnits="userSpaceOnUse">
<stop stop-color="#7E8CBD" stop-opacity="0.58"/>
<stop offset="1" stop-color="#CE9AD7" stop-opacity="0.33"/>
</linearGradient>
<linearGradient id="paint1_linear_1416_29905" x1="249.189" y1="76.5188" x2="124.27" y2="173.751" gradientUnits="userSpaceOnUse">
<stop stop-color="#6A7DBE"/>
<stop offset="1" stop-color="#87618D"/>
</linearGradient>
<linearGradient id="paint2_linear_1416_29905" x1="242.752" y1="219.381" x2="132.335" y2="329.086" gradientUnits="userSpaceOnUse">
<stop stop-color="#7E8CBD"/>
<stop offset="1" stop-color="#CE9AD7"/>
</linearGradient>
<linearGradient id="paint3_linear_1416_29905" x1="241.878" y1="219.952" x2="133.454" y2="325.861" gradientUnits="userSpaceOnUse">
<stop stop-color="#6A7DBE"/>
<stop offset="1" stop-color="#87618D"/>
</linearGradient>
<linearGradient id="paint4_linear_1416_29905" x1="256.316" y1="228.127" x2="135.71" y2="338.346" gradientUnits="userSpaceOnUse">
<stop stop-color="#3C4978"/>
<stop offset="1" stop-color="#672872"/>
</linearGradient>
<linearGradient id="paint5_linear_1416_29905" x1="389.107" y1="96.3159" x2="290.479" y2="112.794" gradientUnits="userSpaceOnUse">
<stop stop-color="#7E8CBD"/>
<stop offset="1" stop-color="#CE9AD7"/>
</linearGradient>
<linearGradient id="paint6_linear_1416_29905" x1="383.03" y1="96.3162" x2="292.544" y2="110.124" gradientUnits="userSpaceOnUse">
<stop stop-color="#6A7DBE"/>
<stop offset="1" stop-color="#87618D"/>
</linearGradient>
<linearGradient id="paint7_linear_1416_29905" x1="382.821" y1="127.024" x2="294.392" y2="136.47" gradientUnits="userSpaceOnUse">
<stop stop-color="#3C4978"/>
<stop offset="1" stop-color="#672872"/>
</linearGradient>
</defs>
</svg>
