<svg width="465" height="364" viewBox="0 0 465 364" fill="none" xmlns="http://www.w3.org/2000/svg">
<rect x="2.5" y="2.5" width="460" height="359" rx="17.5" stroke="url(#paint0_linear_1416_29906)" stroke-width="5"/>
<path d="M57.5273 174.289C63.5897 176.304 78.313 177.724 92.6139 169.253M179.63 115.194C172.626 114.829 164.335 115.316 155.48 117.274C152.263 117.985 148.972 118.891 145.641 120.021M118.61 139.817C119.816 138.173 121.087 136.556 122.475 134.984C127.212 129.614 133.295 124.762 142.69 121.095C143.639 120.725 144.622 120.367 145.641 120.021M145.641 120.021C156.245 120.765 171.662 121.236 168.675 126.399C166.285 130.53 150.356 124.584 142.69 121.095M179.63 115.194C192.96 115.887 201.63 119.661 200.653 122.23C199.312 125.757 186.079 119.009 179.63 115.194ZM155.48 117.274C160.173 112.981 170.462 105.089 174.077 107.87C178.595 111.346 158.14 116.645 155.48 117.274ZM122.475 134.984C124.085 127.729 129.104 113.109 136.302 112.671C145.299 112.123 122.935 127.316 122.475 134.984ZM118.61 139.817C128.703 139.06 148.27 135.901 145.79 129.321C142.69 121.095 126.761 137.327 118.61 139.817ZM92.6139 169.253C94.1461 168.346 95.6735 167.325 97.1848 166.179C99.7262 164.252 101.92 162.216 103.879 160.111C109.905 153.634 113.713 146.497 118.61 139.817M103.879 160.111C102.496 152.495 101.149 136.817 106.82 135.027C113.908 132.79 103.952 150.278 103.879 160.111ZM92.6139 169.253C102.227 167.863 121.609 163.135 122.228 155.346C123.002 145.609 100.462 165.536 92.6139 169.253Z" stroke="url(#paint1_linear_1416_29906)" stroke-width="2" stroke-linecap="round"/>
<path d="M183.84 229.148C192.886 228.704 209.341 230.454 227.153 237.585M310 322.66C311.184 324.132 312.482 325.656 313.929 327.255C315.809 329.332 317.941 331.534 320.399 333.91C322.52 335.959 324.649 337.813 326.769 339.487M326.769 339.487C349.58 357.497 371.38 354.654 371.042 349.613C370.672 344.102 341.553 348.765 326.769 339.487ZM313.929 327.255C324.459 327.862 345.695 330.167 346.392 334.525C347.263 339.972 332.549 338.198 313.929 327.255ZM310 322.66C317.042 330.329 329.81 346.236 324.555 348.512C317.986 351.357 312.613 332.225 310 322.66ZM287.875 288.627C291.094 293.022 293.562 296.833 295.682 300.315C300.646 308.47 303.698 314.823 310 322.66M295.682 300.315C305.007 300.87 323.611 303.877 323.431 311.475C323.206 320.973 308.103 303.61 295.682 300.315ZM277.272 275.393C274.554 272.247 271.491 268.848 268.012 265.151C265.943 262.952 263.821 260.879 261.657 258.927M277.272 275.393C288.293 274.647 310.18 275.451 309.562 284.639C308.79 296.124 290.197 278.72 277.272 275.393ZM277.272 275.393C281.582 280.382 285.023 284.734 287.875 288.627M287.875 288.627C292.995 298.918 300.929 319.745 291.703 320.727C280.171 321.954 291.514 300.217 287.875 288.627ZM244.947 246.478C254.858 243.337 275.33 239.097 277.938 247.259C281.197 257.461 261.827 251.757 244.947 246.478ZM244.947 246.478C250.644 249.954 256.277 254.07 261.657 258.927M244.947 246.478C239.012 242.856 233.009 239.93 227.153 237.585M261.657 258.927C266.851 264.909 275.314 277.827 267.621 281.646C258.006 286.42 267.043 263.484 261.657 258.927ZM227.153 237.585C235.694 242.986 251.515 256.358 246.47 266.641C240.164 279.496 235.087 240.451 227.153 237.585Z" stroke="url(#paint2_linear_1416_29906)" stroke-width="2" stroke-linecap="round"/>
<path d="M350.335 215.61C325.471 208.059 254.332 204.623 240.292 210.464C234.969 211.858 254.282 215.416 264.75 220.677C275.218 225.937 286.738 248.922 315.74 263.209C344.742 277.497 391.763 272.181 413.415 268.159C435.068 264.137 415.201 262.609 406.081 256.521C396.96 250.433 375.199 223.162 350.335 215.61Z" fill="url(#paint3_linear_1416_29906)"/>
<path d="M350.336 215.612C325.471 208.061 254.333 204.625 240.292 210.466C240.292 210.466 266.716 211.493 287.182 213.395C307.649 215.297 324.886 214.358 346.715 222.104C377.184 232.915 402.315 264.589 413.221 265.126C435.217 266.21 415.202 262.611 406.081 256.523C396.961 250.435 375.2 223.164 350.336 215.612Z" fill="url(#paint4_linear_1416_29906)"/>
<path d="M421.312 264.695C412.229 264.755 395.851 263.774 377.083 257.634M323.201 226.956C316.144 222.389 308.98 218.871 298.084 216.118C280.174 211.594 254.172 211.157 200 209.508M398.48 252.645C391.728 253.022 380.739 253.907 377.083 257.634M351.316 246.25C355.128 248.466 359.036 250.445 362.974 252.207C367.672 254.31 372.413 256.107 377.083 257.634M373.936 270.69C369.692 265.697 362.507 257.254 362.974 252.207M362.264 271.276C357.411 264.406 349.6 251.22 351.316 246.25M323.201 226.956C325.958 228.74 328.698 230.684 331.639 232.805C335.487 235.582 339.679 238.661 344.697 242.082C346.861 243.557 349.072 244.945 351.316 246.25M367.147 226.066C357.158 226.855 336.071 229.307 331.639 232.805M350.787 217.559C342.054 219.004 324.31 222.908 323.201 226.956M307.687 257.304C302.893 244.819 294.458 219.945 298.084 216.118" stroke="url(#paint5_linear_1416_29906)" stroke-width="2" stroke-linecap="round"/>
<g filter="url(#filter0_i_1416_29906)">
<path d="M168.094 167.562V196H161.238V167.562H168.094ZM176.648 167.562V172.855H152.879V167.562H176.648ZM198.719 178.852V184.125H184.129V178.852H198.719ZM186.414 167.562V196H179.559V167.562H186.414ZM203.328 167.562V196H196.492V167.562H203.328ZM220.086 173.539L213.152 196H205.789L216.238 167.562H220.906L220.086 173.539ZM225.828 196L218.875 173.539L217.977 167.562H222.703L233.211 196H225.828ZM225.555 185.395V190.688H210.965V185.395H225.555ZM259.051 167.562V196H252.215L242.156 178.305V196H235.301V167.562H242.156L252.215 185.258V167.562H259.051ZM270.242 167.562V196H263.387V167.562H270.242ZM287.215 167.562L276.199 181.977L269.754 189.027L268.504 182.738L272.625 176.488L278.758 167.562H287.215ZM279.109 196L271.766 183.188L277.098 179.262L287.215 196H279.109ZM303.621 188.441C303.621 187.999 303.556 187.602 303.426 187.25C303.296 186.885 303.055 186.547 302.703 186.234C302.352 185.922 301.844 185.609 301.18 185.297C300.529 184.971 299.669 184.633 298.602 184.281C297.352 183.865 296.147 183.396 294.988 182.875C293.829 182.341 292.794 181.723 291.883 181.02C290.971 180.303 290.249 179.47 289.715 178.52C289.181 177.556 288.914 176.436 288.914 175.16C288.914 173.936 289.188 172.836 289.734 171.859C290.281 170.87 291.043 170.03 292.02 169.34C293.009 168.637 294.168 168.103 295.496 167.738C296.824 167.361 298.276 167.172 299.852 167.172C301.935 167.172 303.771 167.536 305.359 168.266C306.961 168.982 308.211 170.004 309.109 171.332C310.021 172.647 310.477 174.203 310.477 176H303.66C303.66 175.284 303.51 174.652 303.211 174.105C302.924 173.559 302.488 173.129 301.902 172.816C301.316 172.504 300.581 172.348 299.695 172.348C298.836 172.348 298.113 172.478 297.527 172.738C296.941 172.999 296.499 173.35 296.199 173.793C295.9 174.223 295.75 174.698 295.75 175.219C295.75 175.648 295.867 176.039 296.102 176.391C296.349 176.729 296.694 177.048 297.137 177.348C297.592 177.647 298.139 177.934 298.777 178.207C299.428 178.48 300.158 178.747 300.965 179.008C302.475 179.49 303.816 180.03 304.988 180.629C306.173 181.215 307.169 181.885 307.977 182.641C308.797 183.383 309.415 184.229 309.832 185.18C310.262 186.13 310.477 187.204 310.477 188.402C310.477 189.678 310.229 190.811 309.734 191.801C309.24 192.79 308.53 193.63 307.605 194.32C306.681 194.997 305.574 195.512 304.285 195.863C302.996 196.215 301.557 196.391 299.969 196.391C298.51 196.391 297.072 196.208 295.652 195.844C294.246 195.466 292.97 194.893 291.824 194.125C290.678 193.344 289.76 192.348 289.07 191.137C288.393 189.913 288.055 188.461 288.055 186.781H294.93C294.93 187.615 295.04 188.318 295.262 188.891C295.483 189.464 295.809 189.926 296.238 190.277C296.668 190.616 297.195 190.863 297.82 191.02C298.445 191.163 299.161 191.234 299.969 191.234C300.841 191.234 301.544 191.111 302.078 190.863C302.612 190.603 303.003 190.264 303.25 189.848C303.497 189.418 303.621 188.949 303.621 188.441Z" fill="#EFEFEF"/>
</g>
<defs>
<filter id="filter0_i_1416_29906" x="148.879" y="167.172" width="161.598" height="33.2188" filterUnits="userSpaceOnUse" color-interpolation-filters="sRGB">
<feFlood flood-opacity="0" result="BackgroundImageFix"/>
<feBlend mode="normal" in="SourceGraphic" in2="BackgroundImageFix" result="shape"/>
<feColorMatrix in="SourceAlpha" type="matrix" values="0 0 0 0 0 0 0 0 0 0 0 0 0 0 0 0 0 0 127 0" result="hardAlpha"/>
<feOffset dx="-4" dy="4"/>
<feGaussianBlur stdDeviation="3"/>
<feComposite in2="hardAlpha" operator="arithmetic" k2="-1" k3="1"/>
<feColorMatrix type="matrix" values="0 0 0 0 0 0 0 0 0 0 0 0 0 0 0 0 0 0 0.1 0"/>
<feBlend mode="normal" in2="shape" result="effect1_innerShadow_1416_29906"/>
</filter>
<linearGradient id="paint0_linear_1416_29906" x1="160.794" y1="126.356" x2="539.126" y2="278.988" gradientUnits="userSpaceOnUse">
<stop stop-color="#7E8CBD" stop-opacity="0.58"/>
<stop offset="1" stop-color="#CE9AD7" stop-opacity="0.33"/>
</linearGradient>
<linearGradient id="paint1_linear_1416_29906" x1="142.165" y1="127.727" x2="126.963" y2="225.931" gradientUnits="userSpaceOnUse">
<stop stop-color="#6A7DBE"/>
<stop offset="1" stop-color="#87618D"/>
</linearGradient>
<linearGradient id="paint2_linear_1416_29906" x1="305.997" y1="310.542" x2="286.749" y2="200.715" gradientUnits="userSpaceOnUse">
<stop stop-color="#6A7DBE"/>
<stop offset="1" stop-color="#87618D"/>
</linearGradient>
<linearGradient id="paint3_linear_1416_29906" x1="359.54" y1="246.807" x2="324.103" y2="164.948" gradientUnits="userSpaceOnUse">
<stop stop-color="#7E8CBD"/>
<stop offset="1" stop-color="#CE9AD7"/>
</linearGradient>
<linearGradient id="paint4_linear_1416_29906" x1="359.738" y1="246.096" x2="324.724" y2="165.048" gradientUnits="userSpaceOnUse">
<stop stop-color="#6A7DBE"/>
<stop offset="1" stop-color="#87618D"/>
</linearGradient>
<linearGradient id="paint5_linear_1416_29906" x1="344.519" y1="245.674" x2="307.64" y2="155.822" gradientUnits="userSpaceOnUse">
<stop stop-color="#3C4978"/>
<stop offset="1" stop-color="#672872"/>
</linearGradient>
</defs>
</svg>
